<svg width="86" height="15" viewBox="0 0 86 15" fill="none" xmlns="http://www.w3.org/2000/svg">
<path d="M10.5312 14L9.14524 10.436H3.49324L2.14324 14H0.253242L5.32924 1.238H7.36324L12.4392 14H10.5312ZM6.30124 3.074L4.12324 8.798H8.51524L6.30124 3.074ZM15.6681 8.996V14H13.9761V5.342H15.6321V6.584C16.2081 5.588 17.0961 5.09 18.2961 5.09C19.2921 5.09 20.0541 5.408 20.5821 6.044C21.1221 6.68 21.3921 7.502 21.3921 8.51V14H19.7001V8.798C19.7001 7.346 19.0281 6.62 17.6841 6.62C17.0481 6.62 16.5501 6.848 16.1901 7.304C15.8421 7.748 15.6681 8.312 15.6681 8.996ZM25.0916 9.644C25.0916 10.556 25.3136 11.3 25.7576 11.876C26.2136 12.452 26.8376 12.74 27.6296 12.74C28.3856 12.74 28.9916 12.446 29.4476 11.858C29.9036 11.27 30.1316 10.52 30.1316 9.608C30.1316 8.708 29.9096 7.982 29.4656 7.43C29.0216 6.878 28.4156 6.602 27.6476 6.602C26.8796 6.602 26.2616 6.884 25.7936 7.448C25.3256 8.012 25.0916 8.744 25.0916 9.644ZM30.1496 12.83V12.686C29.9216 13.13 29.5736 13.502 29.1056 13.802C28.6496 14.09 28.1036 14.234 27.4676 14.234C26.2316 14.234 25.2356 13.802 24.4796 12.938C23.7356 12.062 23.3636 10.964 23.3636 9.644C23.3636 8.384 23.7476 7.316 24.5156 6.44C25.2836 5.552 26.2676 5.108 27.4676 5.108C28.1756 5.108 28.7516 5.252 29.1956 5.54C29.6396 5.816 29.9456 6.158 30.1136 6.566V0.967999H31.7876V12.398C31.7876 12.986 31.8176 13.52 31.8776 14H30.2396C30.1796 13.664 30.1496 13.274 30.1496 12.83ZM53.1336 14H51.3876V4.064L47.0316 14H45.4116L41.0916 4.064V14H39.3456V1.238H41.7396L46.2396 11.624L50.7756 1.238H53.1336V14ZM57.9808 11.948C58.5088 12.488 59.1508 12.758 59.9068 12.758C60.6628 12.758 61.2988 12.488 61.8148 11.948C62.3428 11.396 62.6068 10.634 62.6068 9.662C62.6068 8.702 62.3428 7.952 61.8148 7.412C61.2988 6.86 60.6628 6.584 59.9068 6.584C59.1508 6.584 58.5088 6.86 57.9808 7.412C57.4648 7.952 57.2068 8.702 57.2068 9.662C57.2068 10.634 57.4648 11.396 57.9808 11.948ZM56.7208 6.386C57.5608 5.51 58.6228 5.072 59.9068 5.072C61.1908 5.072 62.2468 5.51 63.0748 6.386C63.9148 7.25 64.3348 8.342 64.3348 9.662C64.3348 10.994 63.9208 12.098 63.0928 12.974C62.2648 13.838 61.2028 14.27 59.9068 14.27C58.6108 14.27 57.5488 13.838 56.7208 12.974C55.8928 12.098 55.4788 10.994 55.4788 9.662C55.4788 8.342 55.8928 7.25 56.7208 6.386ZM71.3056 5.252V7.052C71.0536 7.016 70.8076 6.998 70.5676 6.998C68.9836 6.998 68.1916 7.886 68.1916 9.662V14H66.4996V5.342H68.1556V6.854C68.6836 5.75 69.5476 5.198 70.7476 5.198C70.9396 5.198 71.1256 5.216 71.3056 5.252ZM74.1191 8.78H78.8531C78.8291 8.132 78.6131 7.604 78.2051 7.196C77.7971 6.776 77.2211 6.566 76.4771 6.566C75.8051 6.566 75.2531 6.788 74.8211 7.232C74.3891 7.664 74.1551 8.18 74.1191 8.78ZM79.1051 11.03L80.5631 11.534C80.3111 12.338 79.8431 12.998 79.1591 13.514C78.4751 14.018 77.6471 14.27 76.6751 14.27C75.4631 14.27 74.4311 13.856 73.5791 13.028C72.7391 12.188 72.3191 11.06 72.3191 9.644C72.3191 8.324 72.7271 7.232 73.5431 6.368C74.3591 5.504 75.3311 5.072 76.4591 5.072C77.7671 5.072 78.7871 5.486 79.5191 6.314C80.2511 7.13 80.6171 8.228 80.6171 9.608C80.6171 9.824 80.6051 10.004 80.5811 10.148H74.0651C74.0771 10.916 74.3291 11.546 74.8211 12.038C75.3251 12.53 75.9431 12.776 76.6751 12.776C77.9111 12.776 78.7211 12.194 79.1051 11.03ZM85.1889 1.238L84.7389 10.346H83.5329L83.0649 1.238H85.1889ZM83.2989 13.748C83.0709 13.52 82.9569 13.244 82.9569 12.92C82.9569 12.596 83.0709 12.32 83.2989 12.092C83.5269 11.852 83.8029 11.732 84.1269 11.732C84.4509 11.732 84.7269 11.852 84.9549 12.092C85.1949 12.32 85.3149 12.596 85.3149 12.92C85.3149 13.244 85.1949 13.52 84.9549 13.748C84.7269 13.976 84.4509 14.09 84.1269 14.09C83.8029 14.09 83.5269 13.976 83.2989 13.748Z" fill="#5A366D"/>
</svg>
