<?xml version="1.0" encoding="UTF-8"?>
<svg width="900px" height="450px" viewBox="0 0 900 450" version="1.1" xmlns="http://www.w3.org/2000/svg" xmlns:xlink="http://www.w3.org/1999/xlink">
    <!-- Generator: Sketch 56.3 (81716) - https://sketch.com -->
    <title>medicare</title>
    <desc>Created with Sketch.</desc>
    <g id="medicare" stroke="none" stroke-width="1" fill="none" fill-rule="evenodd">
        <g transform="translate(0.000000, 142.000000)" fill="#5A366D" fill-rule="nonzero">
            <path d="M162.508154,163.618615 L183.075923,8.2962 L139.002231,8.2962 L110.749846,67.2911308 C104.195077,81.3482308 96.0583846,99.5538462 90.1820769,116.838 L89.2779231,116.838 C89.0515385,99.5538462 87.4696154,81.8093077 86.5654615,67.2911308 L81.819,8.2962 L38.1973154,8.2962 L0,163.618615 L29.8345846,163.618615 L44.9779154,99.5538462 C48.8202923,82.7314615 53.3406462,59.4558692 57.6350308,38.9459077 L58.0871077,38.9459077 C58.9911231,59.6863385 60.1212462,81.1183846 61.4773385,98.1713077 L66.9018462,161.084077 L92.2160769,161.084077 L123.406615,97.4796923 C131.769692,80.4267692 141.262615,58.995 149.625,38.9459077 L150.303462,38.9459077 C146.009077,61.2994846 142.618154,82.7314615 140.132077,99.5538462 L130.865538,163.618615 L162.508154,163.618615 Z" id="Path"></path>
            <path d="M278.069538,133.199308 C269.255077,137.578154 259.083692,140.343231 247.104692,140.343231 C237.611769,140.343231 230.153538,137.347615 225.859154,131.586231 C223.598769,128.360077 222.468923,123.290308 222.242538,120.064154 C266.768308,121.216154 294.117231,110.846077 294.117231,82.2703846 C294.117231,61.2994846 278.069538,48.3943154 255.693462,48.3943154 C215.688462,48.3943154 191.277692,84.114 191.277692,118.451077 C191.277692,147.948231 207.551769,166.153846 238.968,166.153846 C251.399077,166.153846 267.446769,163.849154 280.329923,157.166308 L278.069538,133.199308 Z M263.604462,82.0398462 C263.604462,92.6404615 250.947,96.0971538 225.407077,95.8666154 C227.667462,85.4965385 236.481923,72.5912308 251.625462,72.5912308 C259.083692,72.5912308 263.604462,76.509 263.604462,82.0398462 Z" id="Shape"></path>
            <path d="M399.415846,0 L389.697231,50.9292692 C384.950769,49.0856538 379.073769,48.1638462 374.553692,48.1638462 C332.739692,48.1638462 304.939385,84.3445385 304.939385,123.520846 C304.939385,150.944538 320.308615,166.153846 339.068769,166.153846 C352.177615,166.153846 365.738538,160.392462 375.457846,145.413692 L375.909923,145.413692 L374.327308,163.618615 L404.162308,163.618615 C404.614385,150.252923 406.648385,134.121462 409.360846,119.833615 L431.736231,0 L399.415846,0 Z M379.300154,107.619923 C375.005769,129.282231 363.478846,139.421769 353.985923,139.421769 C344.718692,139.421769 338.842385,131.816769 338.842385,118.220538 C338.842385,96.5582308 352.629692,73.5133846 372.293308,73.5133846 C377.491846,73.5133846 382.464,75.1264615 385.176462,77.4311538 L379.300154,107.619923 Z" id="Shape"></path>
            <path d="M461.022231,163.618615 L482.042077,50.9292692 L449.495308,50.9292692 L428.475462,163.618615 L461.022231,163.618615 Z M470.063077,36.8718923 C480.459462,36.8718923 489.274615,29.9583692 489.274615,18.2054769 C489.274615,8.2962 482.494154,1.84359462 472.774846,1.84359462 C462.829846,1.84359462 454.015385,9.44840769 454.015385,20.7404308 C454.015385,30.4193077 460.570154,36.8718923 469.611,36.8718923 L470.063077,36.8718923 Z" id="Shape"></path>
            <path d="M569.657769,134.813077 C564.007846,137.117077 557.226692,139.421769 547.734462,139.421769 C535.754769,139.421769 526.036154,131.586231 526.036154,116.146385 C526.036154,94.9451538 540.501231,74.8959231 563.555769,74.8959231 C570.109846,74.8959231 574.630615,76.0479231 578.472923,77.6616923 L586.609615,52.0814769 C581.636769,50.2379308 573.500077,48.3943154 564.007846,48.3943154 C521.968154,48.3943154 491.907462,79.7351538 491.907462,119.833615 C491.907462,148.870385 511.119,165.923308 538.467231,165.923308 C551.576769,165.923308 562.877308,163.388769 569.884154,159.931385 L569.657769,134.813077 Z" id="Path"></path>
            <path d="M686.250692,163.618615 C685.798615,149.561308 688.059,127.438615 690.770769,112.920231 L702.297692,53.9250923 C693.034615,50.9292692 679.018154,48.3943154 665.682923,48.3943154 C611.437846,48.3943154 586.575692,88.9532308 586.575692,126.977538 C586.575692,150.483462 600.137308,166.153846 620.026615,166.153846 C632.909769,166.153846 647.149154,159.931385 657.319846,141.265385 L657.771923,141.265385 C657.319846,149.330769 656.642077,156.935769 656.416385,163.618615 L686.250692,163.618615 Z M660.710769,100.476 C655.512231,128.129538 643.533231,139.421769 633.813923,139.421769 C624.773077,139.421769 620.478692,131.816769 620.478692,120.755077 C620.478692,99.7843846 635.847923,73.5133846 656.868462,73.5133846 C660.258692,73.5133846 663.196846,73.9744615 665.682923,74.4348462 L660.710769,100.476 Z" id="Shape"></path>
            <path d="M742.666154,163.618615 L750.350769,121.677231 C754.414615,99.5538462 764.134615,80.6573077 784.931538,80.6573077 C786.738462,80.6573077 788.545385,80.6573077 790.130769,80.8878462 L796.458462,48.6247846 C794.423077,48.3943154 792.387692,48.3943154 790.352308,48.3943154 C775.211538,48.3943154 763.006154,58.995 755.093077,73.9744615 L754.414615,73.9744615 C755.321538,66.1389231 755.771538,58.5340615 756.45,50.9292692 L728.196923,50.9292692 C727.068462,60.6081462 725.711538,79.5053077 722.547692,96.5582308 L710.113846,163.618615 L742.666154,163.618615 Z" id="Path"></path>
            <path d="M883.952308,133.199308 C875.139231,137.578154 864.969231,140.343231 852.985385,140.343231 C843.493846,140.343231 836.037692,137.347615 831.745385,131.586231 C829.481538,128.360077 828.353077,123.290308 828.124615,120.064154 C872.653846,121.216154 900,110.846077 900,82.2703846 C900,61.2994846 883.952308,48.3943154 861.576923,48.3943154 C821.568462,48.3943154 797.157692,84.114 797.157692,118.451077 C797.157692,147.948231 813.433846,166.153846 844.850769,166.153846 C857.284615,166.153846 873.332308,163.849154 886.216154,157.166308 L883.952308,133.199308 Z M869.49,82.0398462 C869.49,92.6404615 856.827692,96.0971538 831.288462,95.8666154 C833.552308,85.4965385 842.365385,72.5912308 857.506154,72.5912308 C864.969231,72.5912308 869.49,76.509 869.49,82.0398462 Z" id="Shape"></path>
        </g>
    </g>
</svg>