<?xml version="1.0" encoding="UTF-8"?>
<svg width="900px" height="450px" viewBox="0 0 900 450" version="1.1" xmlns="http://www.w3.org/2000/svg" xmlns:xlink="http://www.w3.org/1999/xlink">
    <!-- Generator: Sketch 56.3 (81716) - https://sketch.com -->
    <title>tricare</title>
    <desc>Created with Sketch.</desc>
    <g id="tricare" stroke="none" stroke-width="1" fill="none" fill-rule="evenodd">
        <g fill="#5A366D" id="Shape">
            <path d="M792.626538,347.727115 L669.252981,265.067308 L669.322212,237.843173 L743.318654,288.738173 L704.043173,206.646923 L787.360673,145.048846 L719.562115,145.048846 L633.288462,217.423558 L687.528173,347.727115 L564.154615,265.067308 L564.225577,237.843173 L638.222019,288.738173 L598.944808,206.646923 L682.264038,145.048846 L615.966058,145.048846 L529.693269,217.423558 L583.93125,347.727115 L460.557692,265.067308 L460.628654,237.843173 L534.625962,288.738173 L495.34875,206.646923 L578.66625,145.048846 L485.079231,145.048846 L461.754519,59.5554231 L443.040577,130.931827 L427.573558,123.141635 L425.510481,131.014038 C424.600962,130.457596 423.539135,129.823269 422.329327,129.126635 C417.52125,126.359135 410.393077,122.612019 401.365385,118.860577 C383.302212,111.347308 357.692019,103.852212 327.755769,103.86 C299.908558,103.878173 268.314231,110.249135 234.801346,129.310096 C190.99125,154.258269 154.574135,163.635577 124.666442,163.635577 L124.619712,163.635577 C106.015673,163.635577 90.0129808,159.970673 76.6564615,154.399327 C63.2789135,148.830577 52.5602596,141.389135 44.2529135,133.974519 C38.7646442,129.066923 34.3206346,124.184423 30.8060481,119.810769 L39.0137885,94.2031731 L39.5734327,93.9253846 L39.6196442,94.0179808 C39.691125,94.1573077 39.8197212,94.4022115 40.0030962,94.7388462 C40.3735673,95.4147115 40.9715481,96.4652885 41.8091538,97.7997115 C43.4873942,100.470288 46.1239615,104.278846 49.7959615,108.524423 C57.1538077,117.032885 68.5757596,127.221058 84.8627308,134.002212 C95.7392308,138.523846 108.815192,141.586442 124.666442,141.594231 C150.060288,141.594231 182.799519,133.652596 224.221154,110.076058 C261.036346,89.0948077 296.636538,81.7989231 327.755769,81.8172692 C361.257404,81.824625 389.564135,90.1497115 409.559712,98.4556731 C415.729904,101.022404 421.110865,103.588269 425.619519,105.920481 L460.628654,0 L504.096923,121.856538 L523.85625,121.856538 L564.225577,0 L607.692981,121.856538 L629.312019,121.856538 L669.322212,0 L712.791346,121.856538 L747.209423,121.856538 L852.306923,121.856538 L738.388558,217.423558 L792.626538,347.727115 Z M565.350577,59.5554231 L549.015577,121.856538 L582.347596,121.856538 L565.350577,59.5554231 Z M654.112212,121.856538 L670.447212,59.5554231 L687.445096,121.856538 L654.112212,121.856538 Z M21.6225,173.863558 L20.5386058,174.375865 L20.5386058,174.377596 L21.6225,173.863558 Z M10.2707308,245.967404 L11.3560096,245.455096 L10.2693462,245.968269 L10.2707308,245.967404 Z M307.219327,163.636408 C340.722692,163.6425 369.029423,171.9675 389.024135,180.274327 C398.03625,184.023173 405.366058,187.769423 410.750481,190.791346 L404.973173,212.831827 C404.064519,212.275385 403.001827,211.642788 401.79375,210.946154 C396.984808,208.177788 389.8575,204.431538 380.830673,200.679231 C362.7675,193.166827 337.154712,185.672596 307.218462,185.677788 C279.37125,185.697692 247.778654,192.069519 214.263173,211.130481 C170.452212,236.076923 134.036827,245.454231 104.129135,245.454231 L104.083269,245.454231 C85.478625,245.454231 69.4768846,241.788462 56.1188942,236.219712 C42.7435962,230.648365 32.02425,223.209519 23.7168173,215.794038 C18.2279423,210.886442 13.7839327,206.003942 10.2693462,201.629423 L18.4763077,176.022692 L19.0360385,175.744038 L18.4763077,176.021827 L18.4907596,175.977692 L19.0179519,175.707692 L19.0836346,175.835769 C19.1551154,175.975096 19.2822404,176.22 19.4663942,176.556635 C19.8368654,177.2325 20.4354519,178.283077 21.2731442,179.616635 C22.9506923,182.288077 25.5886442,186.095769 29.2599519,190.342212 C36.6163269,198.850673 48.0389712,209.039712 64.3274135,215.820865 C75.2027019,220.340769 88.27875,223.405962 104.13,223.412019 C129.522981,223.412019 162.261346,215.47125 203.684712,191.894712 C240.499038,170.913462 276.100096,163.618269 307.219327,163.636408 Z M24.2132885,173.931058 L24.2351827,173.863558 L20.5386058,175.718942 L24.2132885,173.931058 Z M296.948942,245.455056 C330.452308,245.461154 358.758173,253.786154 378.75375,262.09125 C387.765865,265.840962 395.094808,269.588942 400.480962,272.608269 L394.704519,294.649615 C393.795,294.093173 392.733173,293.459712 391.524231,292.763077 C386.714423,289.994712 379.587115,286.248462 370.559423,282.497019 C352.497115,274.98375 326.884327,267.486923 296.948942,267.495577 C269.102596,267.51375 237.508269,273.885577 203.993654,292.948269 C160.184423,317.896442 123.767308,327.272885 93.8596154,327.272885 L93.8016346,327.272885 C75.2035673,327.272019 59.2046827,323.60625 45.8510192,318.0375 C32.4735577,312.467019 21.7556827,305.027308 13.4467788,297.611827 C7.95861346,292.704231 3.5146125,287.82 0,283.446346 L8.20630385,257.840481 L8.76669231,257.561827 L8.20703077,257.839615 L8.22147404,257.795481 L8.74938462,257.525481 L8.81359615,257.653558 C8.88507692,257.794615 9.01289423,258.038654 9.19782692,258.376154 C9.56682692,259.051154 10.1654135,260.101731 11.0031058,261.436154 C12.6813462,264.105 15.3186058,267.914423 18.9899135,272.16 C26.3469808,280.668462 37.7704038,290.8575 54.0580673,297.638654 C64.9333558,302.160288 78.0090577,305.224615 93.8596154,305.231538 C119.255192,305.231538 151.991827,297.289904 193.413462,273.714231 C230.230385,252.73125 265.829712,245.435192 296.948942,245.455056 Z M13.9440288,255.750577 L13.9658365,255.681346 L10.2693462,257.535865 L13.9440288,255.750577 Z M38.5479519,450 L23.0657019,450 L23.0657019,402.145962 L10.2693462,402.145962 L10.2693462,388.636442 L51.3443077,388.636442 L51.3443077,402.145962 L38.5479519,402.145962 L38.5479519,450 Z M179.1225,450 L195.106154,450 L179.581154,424.852788 C186.590769,423.306346 190.389808,415.980865 190.389808,407.518269 C190.389808,394.414615 182.987308,388.636442 173.226635,388.636442 L154.031538,388.636442 L154.031538,450 L166.87125,450 L166.87125,426.398365 L167.002788,426.398365 L179.1225,450 Z M168.118269,416.144423 L166.873846,416.144423 L166.873846,400.844423 L168.118269,400.844423 C172.311058,400.844423 177.028269,401.821442 177.028269,408.494423 C177.028269,415.168269 172.311058,416.144423 168.118269,416.144423 Z M287.524038,388.636442 L277.255385,388.636442 L277.255385,450 L287.524038,450 L287.524038,388.636442 Z M431.288654,409.73625 C428.440673,405.563365 423.812596,403.322019 419.043462,403.322019 C410.50125,403.322019 404.735192,410.432019 404.735192,419.473558 C404.735192,428.67 410.573077,435.316154 419.257212,435.316154 C423.812596,435.316154 428.369712,432.920769 431.288654,429.133846 L431.288654,447.294808 L430.903558,447.42375 C426.473654,448.904423 423.193846,450 418.9725,450 C411.498173,450 404.379519,446.907981 398.827212,441.420577 C392.919231,435.625096 390.213173,428.050385 390.213173,419.394808 C390.213173,411.435 392.990192,403.784135 398.115,398.064808 C403.383462,392.192308 410.999712,388.636442 418.545865,388.636442 C423.030288,388.636442 427.159038,389.719038 431.288654,391.574423 L431.288654,409.73625 Z M533.764904,439.339327 L529.700192,450 L513.436154,450 L536.110962,388.636442 L552.843173,388.636442 L575.048942,450 L558.70875,450 L554.876827,439.339327 L533.764904,439.339327 Z M544.476635,407.600481 L544.320865,407.600481 L537.987115,427.131346 L550.7325,427.131346 L544.476635,407.600481 Z M692.558654,450 L708.543173,450 L693.017308,424.852788 C700.026923,423.306346 703.825962,415.980865 703.825962,407.518269 C703.825962,394.414615 696.423462,388.636442 686.662788,388.636442 L667.467692,388.636442 L667.467692,450 L680.308269,450 L680.308269,426.398365 L680.438942,426.398365 L692.558654,450 Z M681.556154,416.144423 L680.311731,416.144423 L680.311731,400.844423 L681.556154,400.844423 C685.748942,400.844423 690.465288,401.821442 690.465288,408.494423 C690.465288,415.168269 685.748942,416.144423 681.556154,416.144423 Z M825.307788,412.400769 L825.307788,402.145962 L842.04,402.145962 L842.04,388.636442 L811.233173,388.636442 L811.233173,450 L842.04,450 L842.04,436.490481 L825.307788,436.490481 L825.307788,425.910288 L841.177212,425.910288 L841.177212,412.400769 L825.307788,412.400769 Z M888.170192,389.957885 C886.525962,389.076923 884.847115,388.636442 883.125,388.636442 C881.394231,388.636442 879.715385,389.076923 878.071154,389.957885 C876.426923,390.838846 875.146154,392.099712 874.228846,393.740481 C873.302885,395.379519 872.844231,397.090385 872.844231,398.870481 C872.844231,400.632404 873.302885,402.326827 874.202885,403.952885 C875.111538,405.579808 876.383654,406.843269 878.010577,407.741538 C879.6375,408.641538 881.342308,409.091538 883.125,409.091538 C884.899038,409.091538 886.603846,408.641538 888.230769,407.741538 C889.857692,406.843269 891.129808,405.579808 892.029808,403.952885 C892.929808,402.326827 893.379808,400.632404 893.379808,398.870481 C893.379808,397.090385 892.921154,395.379519 892.0125,393.740481 C891.095192,392.099712 889.814423,390.838846 888.170192,389.957885 Z M878.901923,391.4325 C880.269231,390.696058 881.671154,390.328269 883.116346,390.328269 C884.552885,390.328269 885.954808,390.696058 887.322115,391.4325 C888.689423,392.168942 889.7625,393.222115 890.524038,394.591154 C891.294231,395.960192 891.675,397.386346 891.675,398.867885 C891.675,400.340769 891.302885,401.753077 890.55,403.104808 C889.797115,404.455673 888.741346,405.507981 887.374038,406.263462 C886.015385,407.017212 884.596154,407.395385 883.116346,407.395385 C881.636538,407.395385 880.217308,407.017212 878.858654,406.263462 C877.491346,405.507981 876.435577,404.455673 875.682692,403.104808 C874.921154,401.753077 874.540385,400.340769 874.540385,398.867885 C874.540385,397.386346 874.929808,395.960192 875.7,394.591154 C876.470192,393.222115 877.534615,392.168942 878.901923,391.4325 Z M878.616346,404.524038 L878.616346,393.517212 L882.415385,393.517212 C883.713462,393.517212 884.648077,393.618462 885.227885,393.821827 C885.807692,394.025192 886.275,394.38 886.6125,394.88625 C886.958654,395.3925 887.131731,395.929038 887.131731,396.499327 C887.131731,397.304135 886.846154,398.0025 886.266346,398.599615 C885.695192,399.196731 884.925,399.530769 883.973077,399.602596 C884.371154,399.765288 884.682692,399.96 884.916346,400.185865 C885.357692,400.619423 885.902885,401.346346 886.551923,402.3675 L887.893269,404.524038 L885.721154,404.524038 L884.734615,402.788077 C883.964423,401.424231 883.35,400.569231 882.874038,400.226538 C882.545192,399.972981 882.069231,399.846635 881.446154,399.846635 L880.399038,399.846635 L880.399038,404.524038 L878.616346,404.524038 Z M882.5625,398.329615 L880.399038,398.329615 L880.399038,395.008269 L882.424038,395.008269 C883.298077,395.008269 883.886538,395.071442 884.215385,395.198654 C884.535577,395.325 884.786538,395.517115 884.968269,395.774135 C885.15,396.031154 885.245192,396.322788 885.245192,396.648173 C885.245192,397.154423 885.054808,397.562019 884.674038,397.868365 C884.301923,398.175577 883.592308,398.329615 882.5625,398.329615 Z"></path>
        </g>
    </g>
</svg>