<?xml version="1.0" encoding="UTF-8"?>
<svg width="900px" height="450px" viewBox="0 0 900 450" version="1.1" xmlns="http://www.w3.org/2000/svg" xmlns:xlink="http://www.w3.org/1999/xlink">
    <!-- Generator: Sketch 56.3 (81716) - https://sketch.com -->
    <title>aetna</title>
    <desc>Created with Sketch.</desc>
    <g id="aetna" stroke="none" stroke-width="1" fill="none" fill-rule="evenodd">
        <g transform="translate(0.000000, 120.000000)" fill="#5A366D" id="Shape">
            <path d="M479.02125,206.0325 L476.65575,169.78575 C471.86475,172.25775 466.47825,173.553 461.00175,173.55975 C442.7565,173.55975 437.44575,166.83 437.44575,142.257 L437.44575,78.8175 L473.334,78.8175 L473.334,43.593075 L437.958,43.593075 C437.958,31.099875 438.99,12.703275 440.17275,0 L406.86825,0 C402.36375,30.75675 392.83425,46.68135 362.55075,51.352275 L362.55075,78.8175 L382.71675,78.8175 C382.6905,80.4 382.66125,82.0995 382.6305,83.9055 C382.32075,102.0825 381.828,130.94475 381.828,157.425 C381.828,194.56875 402.582,209.814 441.50625,209.814 C454.13175,210.003 466.73475,208.7355 479.02125,206.0325 Z M662.47725,98.31375 L662.47725,130.37325 C662.334,155.70975 663.50925,193.266 664.248,206.31225 L605.16525,206.31225 C606.20475,193.266 607.01025,152.89425 607.01025,130.37325 L607.01025,105.66 C607.01025,80.8065 600.366,71.81475 579.68775,71.81475 C572.3805,71.81475 565.11825,72.928275 558.195,75.1065 C557.382,98.5155 557.382,115.959 557.382,130.37025 L557.382,130.37325 C557.163,155.70975 558.414,193.266 559.7475,206.31225 L500.664,206.31225 C501.696,193.266 502.359,152.481 502.50975,130.37325 C502.653,108.27225 502.5855,72.501075 500.664,43.523025 C518.385,43.523025 532.812,42.201 546.84,40.915575 C560.112,39.699375 573.02625,38.51595 588.0345,38.51595 C643.05675,38.51595 662.47725,57.1227 662.47725,98.31375 Z M244.611,137.24325 C250.0725,137.65575 260.85225,137.65575 267.21,137.65575 C321.6375,137.65575 349.63125,121.79475 349.33216,87.53625 C349.33216,58.0821 326.2935,38.51595 276.21975,38.51595 C215.4345,38.51595 191.35875,63.712425 185.889,108.74775 C177.03,107.99175 167.358,107.99175 154.137,107.99175 L154.137,100.5825 C154.137,54.923775 133.752,38.375925 79.6185,38.375925 C57.968025,37.8297 36.392925,40.854975 15.879975,47.3046 L17.944125,83.69175 C32.90505,76.25475 49.51575,72.143925 66.46545,71.674725 C91.43025,71.674725 98.82075,81.21975 98.82075,104.0145 L98.82075,107.44575 L90.32325,107.44575 C28.581,107.44575 0,123.8535 0,157.08225 C0,190.311 17.80095,209.814 68.386425,209.814 C80.955,209.814 93.42675,209.04 106.64475,208.22025 C121.54275,207.2955 137.38875,206.31225 155.38725,206.31225 C153.30825,191.193 152.442,175.95525 152.8035,160.7235 C152.8035,154.6335 153.0885,147.4785 153.408,139.45425 C153.45225,138.3435 153.49725,137.217 153.5415,136.07325 C161.772,136.113 168.65325,136.35 174.41625,136.548 C178.8435,136.70025 182.61075,136.83 185.8215,136.83 C190.989,190.24125 220.75275,209.94675 282.71325,209.94675 C302.541,210.444 322.293,207.43275 340.91475,201.0885 L338.77575,164.6385 C324.41025,172.3065 308.14575,176.37525 291.5805,176.445 C261.078,176.445 244.611,161.68275 244.611,138.34275 L244.611,137.24325 Z M97.8615,141.22275 C97.704,153.45675 97.533,166.68975 98.301,176.235 C92.79375,177.552 87.144,178.245 81.46425,178.30125 C62.631075,178.30125 54.578025,171.8445 54.578025,157.69875 C54.578025,143.55975 64.845825,135.52725 90.549,135.52725 L97.932,135.52725 C97.911,137.38875 97.88625,139.29375 97.8615,141.22275 Z M295.93425,86.577 C295.93425,102.50175 284.559,109.91775 260.78475,109.91775 L260.55825,109.91775 C254.871,109.91775 248.814,109.84725 244.53525,109.5045 L244.53525,108.678 C244.53525,85.82025 252.36225,69.069675 274.88625,69.069675 C287.66325,69.069675 295.93425,75.246 295.93425,86.577 Z M840.285,206.0325 C838.3575,190.8585 837.6525,175.581 838.185,160.31025 C838.185,153.855 838.5075,146.21775 838.8675,137.6235 C839.34,126.5655 839.88,113.922 839.88,100.16925 C839.88,54.5106 819.57,37.96275 765.36,37.96275 C743.58,37.416525 721.869,40.490775 701.25075,47.024475 L703.32225,83.41875 C718.28325,75.98175 734.88675,71.87085 751.845,71.40165 C776.8125,71.40165 784.1925,80.94675 784.1925,103.74075 L784.1925,107.17275 L775.7025,107.17275 C713.88375,107.17275 685.371,123.5805 685.371,156.80925 C685.371,190.038 703.17225,209.53425 753.765,209.53425 C766.335,209.53425 778.8,208.76025 792.015,207.9405 C806.7825,207.024 822.48,206.04975 840.285,206.0325 Z M783.3075,141.19725 C783.1575,153.3615 782.9925,166.48125 783.75,175.962 L783.525,176.235 C778.08,177.44625 772.5075,178.04175 766.9125,178.02075 C748.077,178.02075 740.02425,171.5715 740.02425,157.425 C740.02425,143.28675 750.2925,135.25425 775.995,135.25425 L783.375,135.25425 C783.36,137.19525 783.33,139.1835 783.3075,141.19725 Z M854.94,66.4581 C855.93,69.1332 857.46,71.598225 859.4475,73.734075 C861.555,75.84225 864.1275,77.50875 866.9775,78.60825 C873.195,81.024 880.1925,81.024 886.41,78.60825 C889.2075,77.4735 891.72,75.81375 893.79,73.734075 C895.8075,71.6052 897.36,69.140175 898.3725,66.4581 C899.46,63.635925 900.0075,60.66675 900.0003,57.669525 C900.015,54.6723 899.4675,51.696075 898.3725,48.88095 C897.315,46.345875 895.7625,44.02095 893.79,42.01815 C891.7275,39.9243 889.215,38.26455 886.41,37.144125 C880.1925,34.72815 873.195,34.72815 866.9775,37.144125 C864.1875,38.278575 861.6675,39.93825 859.5975,42.01815 C857.6175,44.013975 856.065,46.345875 855.015,48.88095 C853.9275,51.70305 853.3725,54.6723 853.3875,57.669525 C853.365,60.659775 853.8975,63.62895 854.94,66.4581 Z M876.51,76.8225 C873.7275,76.857 870.9825,76.3185 868.455,75.24675 C865.0575,73.713075 862.2525,71.241075 860.415,68.1738 C858.555,64.973475 857.61,61.38105 857.6775,57.739575 C857.7075,55.400625 858.1275,53.08965 858.9375,50.876775 C859.7325,48.65685 860.9925,46.605 862.6275,44.833275 C864.255,43.06155 866.265,41.63295 868.53,40.645575 C873.6375,38.5797 879.45,38.5797 884.565,40.645575 C886.83,41.63295 888.84,43.06155 890.4675,44.833275 C892.1025,46.605 893.355,48.65685 894.1575,50.876775 C894.96,53.08965 895.3875,55.400625 895.4175,57.739575 C895.4175,60.190575 894.9975,62.620575 894.1575,64.9455 C893.3625,67.186425 892.11,69.259275 890.4675,71.058975 C888.8325,72.823725 886.8225,74.252325 884.565,75.24675 C882.0375,76.3395 879.2925,76.878 876.51,76.8225 Z M872.1525,43.936875 L867.945,43.936875 L868.0875,71.332125 L872.4525,71.332125 L872.4525,60.62475 L876.0675,60.62475 L881.97,69.75645 C882.345,70.393725 882.9075,70.925925 883.5975,71.262075 C884.2275,71.53515 884.9025,71.67525 885.5925,71.67525 L886.7775,71.67525 C887.2125,71.577225 887.6475,71.416125 888.03,71.192025 L880.65,60.141525 C881.535,59.959425 882.39,59.630325 883.155,59.182125 C883.965,58.72695 884.7,58.1457 885.3,57.466425 C885.9375,56.752125 886.44,55.932825 886.7775,55.064475 C887.1375,54.07005 887.31,53.0196 887.2875,51.969225 C887.3475,49.784325 886.38,47.67645 884.6325,46.20585 C882.0975,44.46915 878.9775,43.6638 875.85,43.936875 L872.1525,43.936875 Z M882.7125,51.696075 C882.7125,54.924375 880.725,56.50005 876.7275,56.50005 L872.2275,56.29695 L872.2275,47.375325 L873.93,47.375325 L876.0675,47.375325 C877.845,47.235225 879.63,47.620425 881.1675,48.467775 C882.2175,49.2381 882.8025,50.449575 882.7125,51.696075 Z"></path>
        </g>
    </g>
</svg>