<svg width="306" height="279" viewBox="0 0 306 279" fill="none" xmlns="http://www.w3.org/2000/svg">
<mask id="mask0_2549_12039" style="mask-type:luminance" maskUnits="userSpaceOnUse" x="37" y="0" width="229" height="229">
<path d="M266 0H37.2266V228.791H266V0Z" fill="white"/>
</mask>
<g mask="url(#mask0_2549_12039)">
<mask id="mask1_2549_12039" style="mask-type:luminance" maskUnits="userSpaceOnUse" x="37" y="0" width="229" height="229">
<path d="M266 0H37.2266V228.791H266V0Z" fill="white"/>
</mask>
<g mask="url(#mask1_2549_12039)">
<path d="M151.604 2.45899e-06C214.772 -0.012956 265.989 51.1923 266.001 114.371C266.014 177.547 214.817 228.778 151.649 228.791H151.604V196.084C196.698 196.991 233.996 161.158 234.903 116.053C235.803 70.9507 199.976 33.6498 154.885 32.7395C153.793 32.7233 152.702 32.7233 151.607 32.7395V2.45899e-06H151.604Z" fill="#D5B8E4"/>
<path d="M151.603 0V32.7395C106.502 31.8356 69.2073 67.6657 68.3036 112.771C67.3967 157.879 103.227 195.177 148.322 196.084C149.414 196.107 150.508 196.107 151.6 196.084V228.791C88.4281 228.791 37.2246 177.573 37.2246 114.394C37.2246 51.215 88.4313 0 151.603 0Z" fill="#713B8D"/>
</g>
</g>
<g clip-path="url(#clip0_2549_12039)">
<path d="M105.603 58.125C120.561 58.1373 135.519 58.1456 150.473 58.162C151.136 58.162 151.803 58.195 152.466 58.2114C152.466 64.4961 152.453 70.7766 152.474 77.0613C152.474 77.654 152.68 78.2466 152.791 78.8352C152.779 78.9257 152.775 79.0204 152.775 79.1109C152.68 79.1192 152.585 79.1233 152.491 79.1356C152.276 79.1315 152.058 79.1274 151.844 79.1233C151.638 79.1233 151.436 79.1233 151.23 79.1233C149.315 78.6006 147.59 80.1604 147.837 82.1977C146.951 84.0662 146.012 85.9142 145.201 87.8156C144.793 88.7746 144.196 89.1367 143.216 88.9804L141.98 89.2767L141.853 89.2931C141.688 89.2931 141.523 89.2973 141.359 89.3014C141.26 89.2931 141.161 89.289 141.062 89.2931C140.856 89.3919 140.646 89.4866 140.44 89.5854C140.44 89.5854 140.444 89.5977 140.44 89.5977C140.234 89.5977 140.024 89.5936 139.818 89.5895C139.238 89.6594 138.496 88.754 138.056 89.68L137.66 89.894C136.384 89.6636 135.033 89.1738 134.275 90.8283C133.756 91.7543 133.237 92.6804 132.718 93.6023L132.665 95.6066C132.92 96.1828 132.953 96.973 133.365 97.4011C135.35 99.4671 137.463 101.414 139.501 103.431L139.509 103.455C139.299 105.711 139.093 107.966 138.883 110.221C138.883 110.221 138.883 110.226 138.883 110.23L138.575 111.629L138.583 114.465L138.908 115.16L140.745 116.708C141.297 116.909 141.832 117.21 142.401 117.3C144.975 117.704 146.75 115.955 148.768 114.86C149.385 114.547 150.003 114.238 150.621 113.926H152.466C152.462 139.398 152.458 164.874 152.453 190.346C141.832 190.346 131.215 190.346 120.594 190.346C121.422 189.259 122.303 188.214 123.065 187.086C125.334 183.711 127.624 180.349 129.782 176.904C133.254 171.364 135.333 165.252 136.762 158.918C137.372 156.214 137.771 153.465 138.253 150.732C138.657 148.432 138.303 147.732 136.215 146.608C136.124 146.559 136.021 146.542 135.931 146.493C129.839 143.098 124.77 138.554 120.553 133.014C120.095 132.413 119.193 131.961 118.423 131.812C115.326 131.207 112.172 130.878 109.091 130.191C106.834 129.689 104.565 128.997 102.477 128.014C100.059 126.869 97.8067 125.367 95.5375 123.927C91.9051 121.618 88.528 118.959 85.711 115.699C82.0127 111.419 79.1999 106.538 76.7165 101.48C75.9505 99.924 75.0815 98.2736 74.9291 96.6026C74.9085 96.3968 74.8838 96.1952 74.855 96.0017C74.019 90.5525 73.5371 85.054 73.5371 79.5431V70.7972C74.6285 68.2208 76.6094 67.3359 79.3481 67.373C86.1682 67.4759 92.9923 67.4059 99.8165 67.4059H101.604C101.604 66.0559 101.616 64.8871 101.604 63.7182C101.567 60.4092 102.436 59.1868 105.599 58.1291L105.603 58.125ZM113.65 121.799C106.344 107.336 103.461 92.2194 102.077 76.7732H82.4658C82.8241 81.852 82.857 86.8237 83.6148 91.6844C84.3808 96.5985 86.5965 101.08 89.4011 105.229C92.2346 109.427 95.6652 113.065 99.94 115.782C104.042 118.391 108.317 120.721 113.658 121.799H113.65Z" fill="#FBDF5D"/>
<path d="M203.244 63.7141C203.232 64.883 203.244 66.0518 203.244 67.4018H205.032C211.856 67.4018 218.676 67.4717 225.5 67.3688C228.243 67.3277 230.22 68.2167 231.311 70.7931V83.5847C231.311 87.6633 230.784 91.7091 230.042 95.7177C229.989 96.0017 229.952 96.2939 229.923 96.5985C229.771 98.2654 228.898 99.9158 228.136 101.476C225.648 106.534 222.839 111.415 219.141 115.695C216.324 118.955 212.947 121.614 209.315 123.923C207.05 125.363 204.793 126.869 202.375 128.009C200.291 128.993 198.022 129.685 195.761 130.187C192.685 130.874 189.53 131.203 186.429 131.808C185.659 131.961 184.757 132.409 184.3 133.01C180.082 138.55 175.013 143.093 168.922 146.489C168.835 146.538 168.728 146.555 168.637 146.604C166.549 147.732 166.195 148.427 166.599 150.728C167.077 153.461 167.476 156.21 168.09 158.914C169.523 165.248 171.599 171.36 175.07 176.9C177.228 180.345 179.518 183.707 181.787 187.082C182.549 188.21 183.431 189.259 184.258 190.342C173.637 190.342 163.02 190.342 152.399 190.342C152.395 164.87 152.39 139.393 152.386 113.921L152.889 113.563C153.544 113.786 154.198 114.012 154.857 114.234C155.269 114.44 155.677 114.65 156.089 114.856C158.107 115.95 159.882 117.7 162.456 117.296C163.185 117.181 163.864 116.72 164.585 116.56L165.944 115.152C165.977 114.992 166.014 114.827 166.047 114.666L166.273 112.374L166.257 110.839C165.899 110.082 165.545 109.32 165.186 108.563L166.241 102.55C166.241 102.55 166.257 102.533 166.265 102.525C168.011 100.825 169.791 99.1543 171.479 97.4011C171.891 96.973 171.924 96.1828 172.179 95.6066L172.126 93.6023C171.607 92.6762 171.088 91.7502 170.569 90.8283C169.811 89.1697 168.464 89.6636 167.184 89.894L166.788 89.68C166.348 88.754 165.606 89.6594 165.026 89.5895C164.82 89.5895 164.61 89.5936 164.404 89.5977V89.5854C164.198 89.4866 163.988 89.3919 163.782 89.2931C163.683 89.2931 163.584 89.2931 163.485 89.3014C163.321 89.3014 163.156 89.2973 162.991 89.2931L162.863 89.2767L161.628 88.9804C160.644 89.1326 160.051 88.7746 159.643 87.8156C158.832 85.9142 157.893 84.0662 157.007 82.1977C157.254 80.1604 155.533 78.6006 153.614 79.1233C153.408 79.1233 153.206 79.1233 153 79.1233C152.786 79.1274 152.568 79.1315 152.353 79.1356C152.259 79.1274 152.164 79.1192 152.069 79.1109C152.069 79.0163 152.065 78.9257 152.053 78.8352C152.164 78.2425 152.37 77.654 152.37 77.0613C152.39 70.7766 152.378 64.4961 152.378 58.2114C153.041 58.195 153.708 58.162 154.371 58.162C169.333 58.1456 184.291 58.1373 199.249 58.125C202.412 59.1786 203.281 60.4051 203.244 63.7141ZM204.916 115.782C209.191 113.061 212.618 109.427 215.455 105.229C218.256 101.08 220.471 96.5985 221.242 91.6844C221.999 86.8237 222.028 81.852 222.391 76.7732C215.62 76.7732 209.241 76.7732 202.775 76.7732C201.391 92.2194 198.508 107.336 191.202 121.799C196.544 120.721 200.814 118.391 204.92 115.782H204.916Z" fill="#EFC54A"/>
<path d="M114.233 215.893C111.231 214.399 110.193 212.296 111.144 209.629C111.836 207.691 113.191 206.728 115.427 206.658C116.968 206.612 118.508 206.637 120.048 206.629C130.847 206.629 141.641 206.629 152.439 206.633L152.472 206.666C152.468 209.74 152.46 212.815 152.456 215.893H114.229H114.233Z" fill="#474F54"/>
<path d="M152.459 215.893C152.463 212.819 152.472 209.744 152.476 206.666C163.274 206.653 174.068 206.645 184.867 206.633C186.242 206.637 187.618 206.645 188.989 206.649C191.464 206.653 193.244 207.905 193.964 210.156C194.479 211.753 193.602 213.922 191.905 215.243C191.497 215.461 191.09 215.675 190.682 215.893H152.455H152.459Z" fill="#32393F"/>
<path d="M152.481 190.34C162.476 190.332 183.591 190.357 184.258 190.34C184.382 191.027 184.802 191.871 184.81 192.558C184.855 197.25 184.851 201.938 184.863 206.63C174.065 206.642 163.271 206.651 152.472 206.663L152.439 206.63C152.452 201.275 152.468 195.69 152.481 190.336V190.34Z" fill="#474F54"/>
<path d="M172.49 144.62C172.779 144.348 173.067 144.076 173.359 143.805C173.071 144.076 172.783 144.348 172.49 144.62Z" fill="#FAC030"/>
<path d="M179.801 184.165C179.623 183.877 179.451 183.589 179.273 183.297C179.451 183.585 179.623 183.873 179.801 184.165Z" fill="#FAC031"/>
<path d="M170.35 146.171C170.428 146.101 170.506 146.035 170.58 145.965C170.502 146.035 170.424 146.101 170.35 146.171Z" fill="#FAC030"/>
<path d="M170.874 166.593C170.783 166.556 170.712 166.493 170.662 166.41C170.733 166.473 170.804 166.535 170.874 166.593Z" fill="#FAC030"/>
<path d="M175.242 176.953V176.887C175.287 176.887 175.337 176.879 175.382 176.875C175.337 176.9 175.287 176.929 175.242 176.953Z" fill="#FAC031"/>
<path d="M152.479 190.57C152.467 195.925 152.454 201.279 152.438 206.634C141.64 206.634 130.841 206.634 120.047 206.63C120.059 201.872 120.055 197.114 120.109 192.356C120.117 191.685 120.422 191.015 120.586 190.344C131.208 190.344 141.825 190.344 152.446 190.344C152.467 190.418 152.479 190.496 152.479 190.574V190.57Z" fill="#646D73"/>
<path d="M195.852 112.695C195.778 112.762 195.707 112.828 195.633 112.89C195.683 112.799 195.757 112.733 195.852 112.695Z" fill="#FAC030"/>
<path d="M161.358 87.931L170.863 89.4291C174.821 90.0547 176.345 94.94 173.441 97.7016L166.469 104.328L167.98 113.827C168.611 117.782 164.426 120.737 160.905 118.832L152.442 114.251L143.871 118.622C140.301 120.441 136.195 117.383 136.92 113.444L138.662 103.986L131.854 97.1913C129.021 94.3597 130.664 89.5114 134.634 88.9846L144.172 87.717L148.538 79.144C150.354 75.5757 155.477 75.6374 157.207 79.251L161.358 87.9269V87.931Z" fill="#E4AD38"/>
</g>
<g filter="url(#filter0_d_2549_12039)">
<path d="M236.021 217.065C240.3 213.196 241.681 208.112 241.756 199.789C241.842 190.126 236.313 183.773 236.313 183.773C236.313 183.773 230.675 190.027 230.589 199.689C230.514 208.012 231.807 213.119 236.018 217.065H236.021Z" fill="#DDA02E"/>
</g>
<g filter="url(#filter1_d_2549_12039)">
<path d="M225.707 215.529C227.257 205.99 222.757 198.875 222.757 198.875C222.757 198.875 216.237 204.2 214.687 213.738C213.352 221.953 213.855 227.198 217.419 231.735C222.237 228.56 224.373 223.744 225.707 215.529Z" fill="#DDA02E"/>
</g>
<g filter="url(#filter2_d_2549_12039)">
<path d="M88.5779 231.735C92.1419 227.198 92.6447 221.953 91.3103 213.738C89.7604 204.2 83.2403 198.875 83.2403 198.875C83.2403 198.875 78.7397 205.99 80.2896 215.529C81.624 223.744 83.7597 228.56 88.5779 231.735Z" fill="#DDA02E"/>
</g>
<g filter="url(#filter3_d_2549_12039)">
<path d="M261.021 58.4314C261.607 51.8439 258.825 46.2014 252.44 38.5114C245.025 29.5863 235.477 27.6797 235.477 27.6797C235.477 27.6797 235.601 37.4172 243.016 46.3451C249.401 54.0324 254.44 57.8014 261.021 58.4341V58.4314Z" fill="#DDA02E"/>
</g>
<g filter="url(#filter4_d_2549_12039)">
<path d="M29.1053 126.454C34.8656 126.764 39.4463 124.161 45.4 118.347C52.3124 111.597 52.923 103.199 52.923 103.199C52.923 103.199 44.5132 103.608 37.6007 110.359C31.647 116.172 28.934 120.69 29.1053 126.457V126.454Z" fill="#DDA02E"/>
</g>
<g filter="url(#filter5_d_2549_12039)">
<path d="M56.1581 72.7529C63.974 67.0717 65.7891 58.8484 65.7891 58.8484C65.7891 58.8484 57.4097 58.0388 49.5938 63.7199C42.8637 68.6136 39.5263 72.6921 38.8633 78.423C44.5186 79.5614 49.4253 77.6465 56.1581 72.7529Z" fill="#DDA02E"/>
</g>
<g filter="url(#filter6_d_2549_12039)">
<path d="M64.24 199.793C64.3146 208.116 65.696 213.2 69.9755 217.068C74.1859 213.125 75.4789 208.016 75.4043 199.693C75.3187 190.03 69.6799 183.777 69.6799 183.777C69.6799 183.777 64.1544 190.13 64.2373 199.793H64.24Z" fill="#DDA02E"/>
</g>
<g filter="url(#filter7_d_2549_12039)">
<path d="M62.9815 46.3451C70.3967 37.4172 70.5211 27.6797 70.5211 27.6797C70.5211 27.6797 60.973 29.5863 53.5577 38.5142C47.173 46.2014 44.3909 51.8467 44.9766 58.4341C51.5575 57.8041 56.5968 54.0324 62.9815 46.3451Z" fill="#DDA02E"/>
</g>
<g filter="url(#filter8_d_2549_12039)">
<path d="M240.209 58.8484C240.209 58.8484 242.024 67.0717 249.84 72.7529C256.57 77.6465 261.479 79.5614 267.135 78.423C266.472 72.6921 263.137 68.6136 256.404 63.7199C248.588 58.0388 240.209 58.8484 240.209 58.8484Z" fill="#DDA02E"/>
</g>
<g filter="url(#filter9_d_2549_12039)">
<path d="M246.408 164.977C246.408 164.977 242.137 172.233 243.985 181.716C245.58 189.884 247.867 194.631 252.782 197.651C256.202 193.004 256.537 187.745 254.942 179.577C253.091 170.091 246.406 164.977 246.406 164.977H246.408Z" fill="#DDA02E"/>
</g>
<g filter="url(#filter10_d_2549_12039)">
<path d="M265.414 175.761C267.834 170.522 267.11 165.305 263.913 157.621C260.203 148.698 252.627 145.023 252.627 145.023C252.627 145.023 249.895 152.987 253.606 161.909C256.802 169.594 259.993 173.786 265.414 175.761Z" fill="#DDA02E"/>
</g>
<g filter="url(#filter11_d_2549_12039)">
<path d="M279.551 100.376C284.524 97.4497 286.902 92.7495 288.651 84.6118C290.682 75.1644 286.552 67.8281 286.552 67.8281C286.552 67.8281 279.769 72.8157 277.736 82.2631C275.987 90.4007 276.222 95.6619 279.551 100.376Z" fill="#DDA02E"/>
</g>
<g filter="url(#filter12_d_2549_12039)">
<path d="M57.5782 80.4023C57.5782 80.4023 49.1656 80.0459 41.6702 86.1443C35.2137 91.3944 32.1056 95.6469 31.752 101.405C37.4598 102.234 42.2587 100.057 48.7125 94.8069C56.2079 88.7113 57.5754 80.4023 57.5754 80.4023H57.5782Z" fill="#DDA02E"/>
</g>
<g filter="url(#filter13_d_2549_12039)">
<path d="M282.203 126.229C287.712 124.518 291.105 120.487 294.669 112.968C298.81 104.236 296.464 96.1484 296.464 96.1484C296.464 96.1484 288.72 99.4505 284.579 108.182C281.012 115.701 280.037 120.879 282.2 126.229H282.203Z" fill="#DDA02E"/>
</g>
<g filter="url(#filter14_d_2549_12039)">
<path d="M285.92 134.997C280.923 141.651 278.931 146.528 279.978 152.201C285.719 151.629 289.846 148.357 294.847 141.704C300.651 133.978 299.975 125.586 299.975 125.586C299.975 125.586 291.725 127.271 285.923 134.997H285.92Z" fill="#DDA02E"/>
</g>
<g filter="url(#filter15_d_2549_12039)">
<path d="M257.284 94.8068C263.74 100.057 268.536 102.234 274.244 101.405C273.893 95.6469 270.782 91.3943 264.326 86.1442C256.831 80.0486 248.418 80.4023 248.418 80.4023C248.418 80.4023 249.786 88.7112 257.281 94.8068H257.284Z" fill="#DDA02E"/>
</g>
<g filter="url(#filter16_d_2549_12039)">
<path d="M278.355 58.8334C278.921 49.187 273.719 42.5664 273.719 42.5664C273.719 42.5664 267.776 48.5294 267.21 58.1785C266.721 66.4875 267.757 71.6519 271.766 75.8022C276.233 72.152 277.866 67.1423 278.355 58.8361V58.8334Z" fill="#DDA02E"/>
</g>
<g filter="url(#filter17_d_2549_12039)">
<path d="M276.89 126.457C277.061 120.69 274.351 116.172 268.395 110.359C261.482 103.608 253.072 103.199 253.072 103.199C253.072 103.199 253.68 111.597 260.595 118.347C266.549 124.161 271.13 126.764 276.89 126.454V126.457Z" fill="#DDA02E"/>
</g>
<g filter="url(#filter18_d_2549_12039)">
<path d="M268.726 134.325C263.303 126.326 255.147 124.242 255.147 124.242C255.147 124.242 254.064 132.593 259.484 140.592C264.153 147.481 268.121 150.949 273.826 151.8C275.149 146.182 273.395 141.217 268.726 134.325Z" fill="#DDA02E"/>
</g>
<g filter="url(#filter19_d_2549_12039)">
<path d="M34.4603 177.138C34.3525 171.368 31.424 166.988 25.194 161.47C17.9611 155.063 9.54297 155.062 9.54297 155.062C9.54297 155.062 10.5597 163.421 17.7926 169.829C24.0226 175.347 28.722 177.726 34.4603 177.138Z" fill="#DDA02E"/>
</g>
<g filter="url(#filter20_d_2549_12039)">
<path d="M46.512 140.592C51.9353 132.593 50.8496 124.242 50.8496 124.242C50.8496 124.242 42.6939 126.326 37.2706 134.325C32.6016 141.214 30.8472 146.182 32.1706 151.8C37.8757 150.949 41.843 147.481 46.512 140.592Z" fill="#DDA02E"/>
</g>
<g filter="url(#filter21_d_2549_12039)">
<path d="M271.533 177.138C277.271 177.726 281.974 175.35 288.201 169.829C295.434 163.421 296.451 155.062 296.451 155.062C296.451 155.062 288.032 155.063 280.799 161.47C274.569 166.988 271.644 171.368 271.533 177.138Z" fill="#DDA02E"/>
</g>
<g filter="url(#filter22_d_2549_12039)">
<path d="M238.109 228.024C229.848 229.022 224.95 230.962 221.582 235.645C225.969 239.392 231.188 240.108 239.449 239.11C249.041 237.953 254.627 231.652 254.627 231.652C254.627 231.652 247.701 226.867 238.109 228.024Z" fill="#DDA02E"/>
</g>
<g filter="url(#filter23_d_2549_12039)">
<path d="M271.197 186.528C263.989 190.687 260.245 194.392 258.982 200.024C264.489 201.751 269.569 200.361 276.777 196.202C285.146 191.372 287.815 183.386 287.815 183.386C287.815 183.386 279.565 181.701 271.197 186.531V186.528Z" fill="#DDA02E"/>
</g>
<g filter="url(#filter24_d_2549_12039)">
<path d="M256.357 209.156C248.464 211.789 244.052 214.669 241.689 219.933C246.737 222.726 251.995 222.383 259.888 219.75C269.055 216.694 273.268 209.405 273.268 209.405C273.268 209.405 265.524 206.1 256.357 209.156Z" fill="#DDA02E"/>
</g>
<g filter="url(#filter25_d_2549_12039)">
<path d="M34.2319 75.8022C38.2406 71.6519 39.2767 66.4875 38.7877 58.1785C38.2213 48.5322 32.2786 42.5664 32.2786 42.5664C32.2786 42.5664 27.0763 49.187 27.6427 58.8334C28.1317 67.1423 29.7645 72.1493 34.2319 75.7995V75.8022Z" fill="#DDA02E"/>
</g>
<g filter="url(#filter26_d_2549_12039)">
<path d="M26.4463 100.376C29.7754 95.6646 30.0102 90.4007 28.2614 82.2631C26.2308 72.8157 19.4454 67.8281 19.4454 67.8281C19.4454 67.8281 15.3124 75.1644 17.3457 84.6118C19.0946 92.7495 21.4733 97.4497 26.4463 100.376Z" fill="#DDA02E"/>
</g>
<g filter="url(#filter27_d_2549_12039)">
<path d="M67.8857 228.024C58.2934 226.867 51.3672 231.652 51.3672 231.652C51.3672 231.652 56.9535 237.953 66.5458 239.11C74.8064 240.108 80.0252 239.392 84.4125 235.645C81.0447 230.962 76.1463 229.022 67.8857 228.024Z" fill="#DDA02E"/>
</g>
<g filter="url(#filter28_d_2549_12039)">
<path d="M52.3906 161.909C56.101 152.987 53.3687 145.023 53.3687 145.023C53.3687 145.023 45.7932 148.698 42.0828 157.621C38.8863 165.305 38.1624 170.522 40.5826 175.761C46.0031 173.786 49.1941 169.594 52.3906 161.909Z" fill="#DDA02E"/>
</g>
<g filter="url(#filter29_d_2549_12039)">
<path d="M62.0088 181.716C63.8599 172.23 59.5859 164.977 59.5859 164.977C59.5859 164.977 52.9 170.094 51.049 179.577C49.4549 187.745 49.7919 193.004 53.2095 197.651C58.1244 194.631 60.412 189.884 62.0061 181.716H62.0088Z" fill="#DDA02E"/>
</g>
<g filter="url(#filter30_d_2549_12039)">
<path d="M23.7938 126.229C25.9571 120.879 24.9818 115.701 21.4151 108.182C17.2737 99.4505 9.52971 96.1484 9.52971 96.1484C9.52971 96.1484 7.1869 104.236 11.3255 112.968C14.8922 120.489 18.2821 124.518 23.7911 126.229H23.7938Z" fill="#DDA02E"/>
</g>
<g filter="url(#filter31_d_2549_12039)">
<path d="M47.0157 200.022C45.7531 194.391 42.0096 190.688 34.8016 186.527C26.4332 181.697 18.1836 183.382 18.1836 183.382C18.1836 183.382 20.8524 191.368 29.2208 196.198C36.4288 200.357 41.5095 201.747 47.0157 200.02V200.022Z" fill="#DDA02E"/>
</g>
<g filter="url(#filter32_d_2549_12039)">
<path d="M64.3068 219.929C61.9447 214.665 57.5325 211.785 49.6393 209.152C40.4725 206.096 32.7285 209.401 32.7285 209.401C32.7285 209.401 36.9417 216.69 46.1085 219.746C54.0017 222.38 59.2593 222.722 64.3068 219.929Z" fill="#DDA02E"/>
</g>
<g filter="url(#filter33_d_2549_12039)">
<path d="M26.0183 152.205C27.0654 146.532 25.0734 141.655 20.0756 135.001C14.271 127.273 6.02421 125.59 6.02421 125.59C6.02421 125.59 5.34733 133.982 11.1519 141.708C16.1497 148.361 20.28 151.633 26.021 152.205H26.0183Z" fill="#DDA02E"/>
</g>
<path d="M224 279L224 207L288 207L269.217 243L288 279L224 279Z" fill="#F2CB39"/>
<path d="M84 279L84 207L21 207L39.4892 243L21 279L84 279Z" fill="#F2CB39"/>
<path d="M242 259.351L224 279L224 190L242 190L242 259.351Z" fill="#D3A500"/>
<path d="M66 258.195L84 279L84 190L66 190L66 258.195Z" fill="#D3A500"/>
<rect x="242" y="264" width="176" height="74" transform="rotate(-180 242 264)" fill="url(#paint0_linear_2549_12039)"/>
<path d="M112.677 214.285H104.484V201.202H112.677V203.601H107.031V206.591H112.142V208.86H107.031V211.886H112.677V214.285ZM113.951 214.285L117.18 209.727L113.951 205.207H116.866C117.18 205.705 118.361 207.402 118.675 207.901L120.465 205.207H123.251L120.077 209.654L123.362 214.285H120.483L118.582 211.499C118.25 211.997 117.032 213.787 116.719 214.285H113.951ZM128.596 207.199C127.341 207.199 126.289 208.104 126.289 209.746C126.289 211.388 127.36 212.311 128.614 212.311C129.869 212.311 130.497 211.48 130.7 210.779L132.858 211.499C132.452 213.012 131.032 214.562 128.614 214.562C125.939 214.562 123.835 212.532 123.835 209.746C123.835 206.941 125.902 204.93 128.541 204.93C131.013 204.93 132.416 206.461 132.803 207.993L130.607 208.731C130.386 207.974 129.814 207.199 128.596 207.199ZM136.363 208.713H140.422C140.386 207.808 139.795 206.923 138.393 206.923C137.119 206.923 136.418 207.882 136.363 208.713ZM140.662 211.074L142.71 211.683C142.249 213.252 140.81 214.562 138.577 214.562C136.086 214.562 133.89 212.772 133.89 209.709C133.89 206.812 136.031 204.93 138.356 204.93C141.16 204.93 142.84 206.72 142.84 209.635C142.84 209.986 142.803 210.355 142.803 210.392H136.308C136.363 211.591 137.378 212.458 138.596 212.458C139.74 212.458 140.367 211.886 140.662 211.074ZM147.226 217.791H144.772V205.207H147.153V206.314C147.559 205.613 148.573 205.004 149.939 205.004C152.596 205.004 154.128 207.033 154.128 209.727C154.128 212.477 152.411 214.507 149.847 214.507C148.592 214.507 147.669 214.008 147.226 213.399V217.791ZM151.71 209.746C151.71 208.141 150.714 207.199 149.459 207.199C148.204 207.199 147.189 208.141 147.189 209.746C147.189 211.351 148.204 212.311 149.459 212.311C150.714 212.311 151.71 211.37 151.71 209.746ZM159.061 202.494V205.207H160.888V207.384H159.061V211.185C159.061 211.979 159.43 212.237 160.131 212.237C160.426 212.237 160.758 212.2 160.888 212.163V214.193C160.666 214.285 160.223 214.414 159.504 214.414C157.732 214.414 156.625 213.363 156.625 211.61V207.384H154.983V205.207H155.444C156.404 205.207 156.847 204.579 156.847 203.767V202.494H159.061ZM165.426 214.285H162.972V205.207H165.426V214.285ZM162.677 202.236C162.677 201.387 163.36 200.704 164.19 200.704C165.039 200.704 165.703 201.387 165.703 202.236C165.703 203.048 165.039 203.73 164.19 203.73C163.36 203.73 162.677 203.048 162.677 202.236ZM172.132 212.329C173.331 212.329 174.438 211.462 174.438 209.746C174.438 208.03 173.331 207.163 172.132 207.163C170.932 207.163 169.825 208.03 169.825 209.746C169.825 211.444 170.932 212.329 172.132 212.329ZM172.132 204.93C174.844 204.93 176.892 206.941 176.892 209.746C176.892 212.532 174.844 214.562 172.132 214.562C169.419 214.562 167.371 212.532 167.371 209.746C167.371 206.941 169.419 204.93 172.132 204.93ZM181.284 209.063V214.285H178.83V205.207H181.21V206.332C181.764 205.391 182.852 204.967 183.83 204.967C186.081 204.967 187.115 206.572 187.115 208.565V214.285H184.661V208.989C184.661 207.974 184.162 207.181 182.981 207.181C181.911 207.181 181.284 208.011 181.284 209.063ZM189.052 211.813C189.052 210.189 190.251 209.285 191.764 209.063L193.997 208.731C194.514 208.657 194.68 208.399 194.68 208.085C194.68 207.439 194.182 206.904 193.148 206.904C192.078 206.904 191.488 207.587 191.414 208.38L189.236 207.919C189.384 206.498 190.694 204.93 193.13 204.93C196.008 204.93 197.079 206.554 197.079 208.38V212.846C197.079 213.326 197.134 213.971 197.189 214.285H194.938C194.883 214.045 194.846 213.547 194.846 213.196C194.385 213.916 193.517 214.543 192.17 214.543C190.233 214.543 189.052 213.233 189.052 211.813ZM192.687 212.717C193.72 212.717 194.68 212.219 194.68 210.613V210.207L192.632 210.521C192.004 210.613 191.506 210.964 191.506 211.665C191.506 212.2 191.894 212.717 192.687 212.717ZM202.007 214.285H199.552V200.926H202.007V214.285ZM128.468 234.285H125.959V225.114L122.195 234.285H120.073L116.308 225.188V234.285H113.873V221.202H117.231L121.161 230.65L124.999 221.202H128.468V234.285ZM133.011 228.713H137.071C137.034 227.808 136.443 226.923 135.041 226.923C133.768 226.923 133.067 227.882 133.011 228.713ZM137.311 231.074L139.359 231.683C138.897 233.252 137.458 234.562 135.225 234.562C132.734 234.562 130.539 232.772 130.539 229.709C130.539 226.812 132.679 224.93 135.004 224.93C137.809 224.93 139.488 226.72 139.488 229.635C139.488 229.986 139.451 230.355 139.451 230.392H132.956C133.011 231.591 134.026 232.458 135.244 232.458C136.388 232.458 137.015 231.886 137.311 231.074ZM150.075 220.926V232.643C150.075 233.252 150.112 233.916 150.148 234.285H147.805C147.768 234.101 147.713 233.658 147.713 233.233C147.307 233.953 146.384 234.507 145.166 234.507C142.583 234.507 140.738 232.477 140.738 229.727C140.738 227.07 142.528 224.985 145.093 224.985C146.661 224.985 147.399 225.631 147.657 226.111V220.926H150.075ZM143.21 229.727C143.21 231.351 144.17 232.311 145.462 232.311C146.716 232.311 147.694 231.351 147.694 229.709C147.694 228.085 146.716 227.181 145.462 227.181C144.207 227.181 143.21 228.104 143.21 229.727ZM155.191 234.285H152.737V225.207H155.191V234.285ZM152.442 222.236C152.442 221.387 153.124 220.704 153.955 220.704C154.804 220.704 155.468 221.387 155.468 222.236C155.468 223.048 154.804 223.73 153.955 223.73C153.124 223.73 152.442 223.048 152.442 222.236ZM161.897 227.199C160.642 227.199 159.59 228.104 159.59 229.746C159.59 231.388 160.66 232.311 161.915 232.311C163.17 232.311 163.797 231.48 164 230.779L166.159 231.499C165.753 233.012 164.332 234.562 161.915 234.562C159.239 234.562 157.136 232.532 157.136 229.746C157.136 226.941 159.202 224.93 161.841 224.93C164.314 224.93 165.716 226.461 166.104 227.993L163.908 228.731C163.686 227.974 163.114 227.199 161.897 227.199ZM167.374 231.813C167.374 230.189 168.573 229.285 170.087 229.063L172.319 228.731C172.836 228.657 173.002 228.399 173.002 228.085C173.002 227.439 172.504 226.904 171.471 226.904C170.4 226.904 169.81 227.587 169.736 228.38L167.559 227.919C167.706 226.498 169.016 224.93 171.452 224.93C174.331 224.93 175.401 226.554 175.401 228.38V232.846C175.401 233.326 175.456 233.971 175.512 234.285H173.26C173.205 234.045 173.168 233.547 173.168 233.196C172.707 233.916 171.84 234.543 170.493 234.543C168.555 234.543 167.374 233.233 167.374 231.813ZM171.009 232.717C172.043 232.717 173.002 232.219 173.002 230.613V230.207L170.954 230.521C170.326 230.613 169.828 230.964 169.828 231.665C169.828 232.2 170.216 232.717 171.009 232.717ZM183.41 225.17V227.642C183.133 227.587 182.894 227.569 182.672 227.569C181.417 227.569 180.329 228.177 180.329 230.133V234.285H177.875V225.207H180.255V226.554C180.809 225.354 182.063 225.133 182.838 225.133C183.041 225.133 183.226 225.151 183.41 225.17ZM186.836 228.713H190.896C190.859 227.808 190.268 226.923 188.866 226.923C187.593 226.923 186.892 227.882 186.836 228.713ZM191.136 231.074L193.184 231.683C192.723 233.252 191.283 234.562 189.051 234.562C186.56 234.562 184.364 232.772 184.364 229.709C184.364 226.812 186.504 224.93 188.829 224.93C191.634 224.93 193.313 226.72 193.313 229.635C193.313 229.986 193.276 230.355 193.276 230.392H186.781C186.836 231.591 187.851 232.458 189.069 232.458C190.213 232.458 190.84 231.886 191.136 231.074ZM120.96 247.163H122.972C124.245 247.163 125.02 246.424 125.02 245.299C125.02 244.136 124.245 243.417 122.972 243.417H120.96V247.163ZM123.285 249.358H120.942V254.285H118.396V241.202H123.285C125.869 241.202 127.585 242.919 127.585 245.28C127.585 247.661 125.869 249.358 123.285 249.358ZM134.721 245.17V247.642C134.444 247.587 134.204 247.569 133.983 247.569C132.728 247.569 131.639 248.177 131.639 250.133V254.285H129.185V245.207H131.565V246.554C132.119 245.354 133.374 245.133 134.149 245.133C134.352 245.133 134.536 245.151 134.721 245.17ZM140.435 252.329C141.634 252.329 142.741 251.462 142.741 249.746C142.741 248.03 141.634 247.163 140.435 247.163C139.236 247.163 138.128 248.03 138.128 249.746C138.128 251.444 139.236 252.329 140.435 252.329ZM140.435 244.93C143.147 244.93 145.196 246.941 145.196 249.746C145.196 252.532 143.147 254.562 140.435 254.562C137.722 254.562 135.674 252.532 135.674 249.746C135.674 246.941 137.722 244.93 140.435 244.93ZM155.424 245.207L151.9 254.285H149.446L145.737 245.207H148.431L150.682 251.296L152.841 245.207H155.424ZM159.372 254.285H156.918V245.207H159.372V254.285ZM156.622 242.236C156.622 241.387 157.305 240.704 158.135 240.704C158.984 240.704 159.649 241.387 159.649 242.236C159.649 243.048 158.984 243.73 158.135 243.73C157.305 243.73 156.622 243.048 156.622 242.236ZM170.653 240.926V252.643C170.653 253.252 170.69 253.916 170.727 254.285H168.384C168.347 254.101 168.291 253.658 168.291 253.233C167.885 253.953 166.963 254.507 165.745 254.507C163.162 254.507 161.316 252.477 161.316 249.727C161.316 247.07 163.106 244.985 165.671 244.985C167.24 244.985 167.978 245.631 168.236 246.111V240.926H170.653ZM163.789 249.727C163.789 251.351 164.749 252.311 166.04 252.311C167.295 252.311 168.273 251.351 168.273 249.709C168.273 248.085 167.295 247.181 166.04 247.181C164.785 247.181 163.789 248.104 163.789 249.727ZM175.105 248.713H179.165C179.128 247.808 178.538 246.923 177.135 246.923C175.862 246.923 175.161 247.882 175.105 248.713ZM179.405 251.074L181.453 251.683C180.992 253.252 179.552 254.562 177.32 254.562C174.829 254.562 172.633 252.772 172.633 249.709C172.633 246.812 174.773 244.93 177.098 244.93C179.903 244.93 181.582 246.72 181.582 249.635C181.582 249.986 181.545 250.355 181.545 250.392H175.05C175.105 251.591 176.12 252.458 177.338 252.458C178.482 252.458 179.11 251.886 179.405 251.074ZM189.05 245.17V247.642C188.774 247.587 188.534 247.569 188.312 247.569C187.058 247.569 185.969 248.177 185.969 250.133V254.285H183.515V245.207H185.895V246.554C186.449 245.354 187.703 245.133 188.478 245.133C188.681 245.133 188.866 245.151 189.05 245.17Z" fill="#713B8D"/>
<defs>
<filter id="filter0_d_2549_12039" x="225.05" y="183.773" width="22.2432" height="44.3643" filterUnits="userSpaceOnUse" color-interpolation-filters="sRGB">
<feFlood flood-opacity="0" result="BackgroundImageFix"/>
<feColorMatrix in="SourceAlpha" type="matrix" values="0 0 0 0 0 0 0 0 0 0 0 0 0 0 0 0 0 0 127 0" result="hardAlpha"/>
<feOffset dy="5.53568"/>
<feGaussianBlur stdDeviation="2.76784"/>
<feComposite in2="hardAlpha" operator="out"/>
<feColorMatrix type="matrix" values="0 0 0 0 0 0 0 0 0 0 0 0 0 0 0 0 0 0 0.25 0"/>
<feBlend mode="normal" in2="BackgroundImageFix" result="effect1_dropShadow_2549_12039"/>
<feBlend mode="normal" in="SourceGraphic" in2="effect1_dropShadow_2549_12039" result="shape"/>
</filter>
<filter id="filter1_d_2549_12039" x="208.474" y="198.875" width="23.0928" height="43.9307" filterUnits="userSpaceOnUse" color-interpolation-filters="sRGB">
<feFlood flood-opacity="0" result="BackgroundImageFix"/>
<feColorMatrix in="SourceAlpha" type="matrix" values="0 0 0 0 0 0 0 0 0 0 0 0 0 0 0 0 0 0 127 0" result="hardAlpha"/>
<feOffset dy="5.53568"/>
<feGaussianBlur stdDeviation="2.76784"/>
<feComposite in2="hardAlpha" operator="out"/>
<feColorMatrix type="matrix" values="0 0 0 0 0 0 0 0 0 0 0 0 0 0 0 0 0 0 0.25 0"/>
<feBlend mode="normal" in2="BackgroundImageFix" result="effect1_dropShadow_2549_12039"/>
<feBlend mode="normal" in="SourceGraphic" in2="effect1_dropShadow_2549_12039" result="shape"/>
</filter>
<filter id="filter2_d_2549_12039" x="74.4292" y="198.875" width="23.0928" height="43.9307" filterUnits="userSpaceOnUse" color-interpolation-filters="sRGB">
<feFlood flood-opacity="0" result="BackgroundImageFix"/>
<feColorMatrix in="SourceAlpha" type="matrix" values="0 0 0 0 0 0 0 0 0 0 0 0 0 0 0 0 0 0 127 0" result="hardAlpha"/>
<feOffset dy="5.53568"/>
<feGaussianBlur stdDeviation="2.76784"/>
<feComposite in2="hardAlpha" operator="out"/>
<feColorMatrix type="matrix" values="0 0 0 0 0 0 0 0 0 0 0 0 0 0 0 0 0 0 0.25 0"/>
<feBlend mode="normal" in2="BackgroundImageFix" result="effect1_dropShadow_2549_12039"/>
<feBlend mode="normal" in="SourceGraphic" in2="effect1_dropShadow_2549_12039" result="shape"/>
</filter>
<filter id="filter3_d_2549_12039" x="229.941" y="27.6797" width="36.6925" height="41.8253" filterUnits="userSpaceOnUse" color-interpolation-filters="sRGB">
<feFlood flood-opacity="0" result="BackgroundImageFix"/>
<feColorMatrix in="SourceAlpha" type="matrix" values="0 0 0 0 0 0 0 0 0 0 0 0 0 0 0 0 0 0 127 0" result="hardAlpha"/>
<feOffset dy="5.53568"/>
<feGaussianBlur stdDeviation="2.76784"/>
<feComposite in2="hardAlpha" operator="out"/>
<feColorMatrix type="matrix" values="0 0 0 0 0 0 0 0 0 0 0 0 0 0 0 0 0 0 0.25 0"/>
<feBlend mode="normal" in2="BackgroundImageFix" result="effect1_dropShadow_2549_12039"/>
<feBlend mode="normal" in="SourceGraphic" in2="effect1_dropShadow_2549_12039" result="shape"/>
</filter>
<filter id="filter4_d_2549_12039" x="23.562" y="103.199" width="34.8975" height="34.3526" filterUnits="userSpaceOnUse" color-interpolation-filters="sRGB">
<feFlood flood-opacity="0" result="BackgroundImageFix"/>
<feColorMatrix in="SourceAlpha" type="matrix" values="0 0 0 0 0 0 0 0 0 0 0 0 0 0 0 0 0 0 127 0" result="hardAlpha"/>
<feOffset dy="5.53568"/>
<feGaussianBlur stdDeviation="2.76784"/>
<feComposite in2="hardAlpha" operator="out"/>
<feColorMatrix type="matrix" values="0 0 0 0 0 0 0 0 0 0 0 0 0 0 0 0 0 0 0.25 0"/>
<feBlend mode="normal" in2="BackgroundImageFix" result="effect1_dropShadow_2549_12039"/>
<feBlend mode="normal" in="SourceGraphic" in2="effect1_dropShadow_2549_12039" result="shape"/>
</filter>
<filter id="filter5_d_2549_12039" x="33.3276" y="58.8086" width="37.9971" height="31.005" filterUnits="userSpaceOnUse" color-interpolation-filters="sRGB">
<feFlood flood-opacity="0" result="BackgroundImageFix"/>
<feColorMatrix in="SourceAlpha" type="matrix" values="0 0 0 0 0 0 0 0 0 0 0 0 0 0 0 0 0 0 127 0" result="hardAlpha"/>
<feOffset dy="5.53568"/>
<feGaussianBlur stdDeviation="2.76784"/>
<feComposite in2="hardAlpha" operator="out"/>
<feColorMatrix type="matrix" values="0 0 0 0 0 0 0 0 0 0 0 0 0 0 0 0 0 0 0.25 0"/>
<feBlend mode="normal" in2="BackgroundImageFix" result="effect1_dropShadow_2549_12039"/>
<feBlend mode="normal" in="SourceGraphic" in2="effect1_dropShadow_2549_12039" result="shape"/>
</filter>
<filter id="filter6_d_2549_12039" x="58.7006" y="183.777" width="22.2432" height="44.3643" filterUnits="userSpaceOnUse" color-interpolation-filters="sRGB">
<feFlood flood-opacity="0" result="BackgroundImageFix"/>
<feColorMatrix in="SourceAlpha" type="matrix" values="0 0 0 0 0 0 0 0 0 0 0 0 0 0 0 0 0 0 127 0" result="hardAlpha"/>
<feOffset dy="5.53568"/>
<feGaussianBlur stdDeviation="2.76784"/>
<feComposite in2="hardAlpha" operator="out"/>
<feColorMatrix type="matrix" values="0 0 0 0 0 0 0 0 0 0 0 0 0 0 0 0 0 0 0.25 0"/>
<feBlend mode="normal" in2="BackgroundImageFix" result="effect1_dropShadow_2549_12039"/>
<feBlend mode="normal" in="SourceGraphic" in2="effect1_dropShadow_2549_12039" result="shape"/>
</filter>
<filter id="filter7_d_2549_12039" x="39.3647" y="27.6797" width="36.6925" height="41.8253" filterUnits="userSpaceOnUse" color-interpolation-filters="sRGB">
<feFlood flood-opacity="0" result="BackgroundImageFix"/>
<feColorMatrix in="SourceAlpha" type="matrix" values="0 0 0 0 0 0 0 0 0 0 0 0 0 0 0 0 0 0 127 0" result="hardAlpha"/>
<feOffset dy="5.53568"/>
<feGaussianBlur stdDeviation="2.76784"/>
<feComposite in2="hardAlpha" operator="out"/>
<feColorMatrix type="matrix" values="0 0 0 0 0 0 0 0 0 0 0 0 0 0 0 0 0 0 0.25 0"/>
<feBlend mode="normal" in2="BackgroundImageFix" result="effect1_dropShadow_2549_12039"/>
<feBlend mode="normal" in="SourceGraphic" in2="effect1_dropShadow_2549_12039" result="shape"/>
</filter>
<filter id="filter8_d_2549_12039" x="234.673" y="58.8086" width="37.9971" height="31.005" filterUnits="userSpaceOnUse" color-interpolation-filters="sRGB">
<feFlood flood-opacity="0" result="BackgroundImageFix"/>
<feColorMatrix in="SourceAlpha" type="matrix" values="0 0 0 0 0 0 0 0 0 0 0 0 0 0 0 0 0 0 127 0" result="hardAlpha"/>
<feOffset dy="5.53568"/>
<feGaussianBlur stdDeviation="2.76784"/>
<feComposite in2="hardAlpha" operator="out"/>
<feColorMatrix type="matrix" values="0 0 0 0 0 0 0 0 0 0 0 0 0 0 0 0 0 0 0.25 0"/>
<feBlend mode="normal" in2="BackgroundImageFix" result="effect1_dropShadow_2549_12039"/>
<feBlend mode="normal" in="SourceGraphic" in2="effect1_dropShadow_2549_12039" result="shape"/>
</filter>
<filter id="filter9_d_2549_12039" x="237.986" y="164.977" width="23.4112" height="43.7471" filterUnits="userSpaceOnUse" color-interpolation-filters="sRGB">
<feFlood flood-opacity="0" result="BackgroundImageFix"/>
<feColorMatrix in="SourceAlpha" type="matrix" values="0 0 0 0 0 0 0 0 0 0 0 0 0 0 0 0 0 0 127 0" result="hardAlpha"/>
<feOffset dy="5.53568"/>
<feGaussianBlur stdDeviation="2.76784"/>
<feComposite in2="hardAlpha" operator="out"/>
<feColorMatrix type="matrix" values="0 0 0 0 0 0 0 0 0 0 0 0 0 0 0 0 0 0 0.25 0"/>
<feBlend mode="normal" in2="BackgroundImageFix" result="effect1_dropShadow_2549_12039"/>
<feBlend mode="normal" in="SourceGraphic" in2="effect1_dropShadow_2549_12039" result="shape"/>
</filter>
<filter id="filter10_d_2549_12039" x="246.123" y="145.023" width="26.2647" height="41.8096" filterUnits="userSpaceOnUse" color-interpolation-filters="sRGB">
<feFlood flood-opacity="0" result="BackgroundImageFix"/>
<feColorMatrix in="SourceAlpha" type="matrix" values="0 0 0 0 0 0 0 0 0 0 0 0 0 0 0 0 0 0 127 0" result="hardAlpha"/>
<feOffset dy="5.53568"/>
<feGaussianBlur stdDeviation="2.76784"/>
<feComposite in2="hardAlpha" operator="out"/>
<feColorMatrix type="matrix" values="0 0 0 0 0 0 0 0 0 0 0 0 0 0 0 0 0 0 0.25 0"/>
<feBlend mode="normal" in2="BackgroundImageFix" result="effect1_dropShadow_2549_12039"/>
<feBlend mode="normal" in="SourceGraphic" in2="effect1_dropShadow_2549_12039" result="shape"/>
</filter>
<filter id="filter11_d_2549_12039" x="271.124" y="67.8281" width="23.6241" height="43.6182" filterUnits="userSpaceOnUse" color-interpolation-filters="sRGB">
<feFlood flood-opacity="0" result="BackgroundImageFix"/>
<feColorMatrix in="SourceAlpha" type="matrix" values="0 0 0 0 0 0 0 0 0 0 0 0 0 0 0 0 0 0 127 0" result="hardAlpha"/>
<feOffset dy="5.53568"/>
<feGaussianBlur stdDeviation="2.76784"/>
<feComposite in2="hardAlpha" operator="out"/>
<feColorMatrix type="matrix" values="0 0 0 0 0 0 0 0 0 0 0 0 0 0 0 0 0 0 0.25 0"/>
<feBlend mode="normal" in2="BackgroundImageFix" result="effect1_dropShadow_2549_12039"/>
<feBlend mode="normal" in="SourceGraphic" in2="effect1_dropShadow_2549_12039" result="shape"/>
</filter>
<filter id="filter12_d_2549_12039" x="26.2163" y="80.3984" width="36.8975" height="32.251" filterUnits="userSpaceOnUse" color-interpolation-filters="sRGB">
<feFlood flood-opacity="0" result="BackgroundImageFix"/>
<feColorMatrix in="SourceAlpha" type="matrix" values="0 0 0 0 0 0 0 0 0 0 0 0 0 0 0 0 0 0 127 0" result="hardAlpha"/>
<feOffset dy="5.53568"/>
<feGaussianBlur stdDeviation="2.76784"/>
<feComposite in2="hardAlpha" operator="out"/>
<feColorMatrix type="matrix" values="0 0 0 0 0 0 0 0 0 0 0 0 0 0 0 0 0 0 0.25 0"/>
<feBlend mode="normal" in2="BackgroundImageFix" result="effect1_dropShadow_2549_12039"/>
<feBlend mode="normal" in="SourceGraphic" in2="effect1_dropShadow_2549_12039" result="shape"/>
</filter>
<filter id="filter13_d_2549_12039" x="275.523" y="96.1484" width="27.1397" height="41.1534" filterUnits="userSpaceOnUse" color-interpolation-filters="sRGB">
<feFlood flood-opacity="0" result="BackgroundImageFix"/>
<feColorMatrix in="SourceAlpha" type="matrix" values="0 0 0 0 0 0 0 0 0 0 0 0 0 0 0 0 0 0 127 0" result="hardAlpha"/>
<feOffset dy="5.53568"/>
<feGaussianBlur stdDeviation="2.76784"/>
<feComposite in2="hardAlpha" operator="out"/>
<feColorMatrix type="matrix" values="0 0 0 0 0 0 0 0 0 0 0 0 0 0 0 0 0 0 0.25 0"/>
<feBlend mode="normal" in2="BackgroundImageFix" result="effect1_dropShadow_2549_12039"/>
<feBlend mode="normal" in="SourceGraphic" in2="effect1_dropShadow_2549_12039" result="shape"/>
</filter>
<filter id="filter14_d_2549_12039" x="274.171" y="125.586" width="31.3624" height="37.6846" filterUnits="userSpaceOnUse" color-interpolation-filters="sRGB">
<feFlood flood-opacity="0" result="BackgroundImageFix"/>
<feColorMatrix in="SourceAlpha" type="matrix" values="0 0 0 0 0 0 0 0 0 0 0 0 0 0 0 0 0 0 127 0" result="hardAlpha"/>
<feOffset dy="5.53568"/>
<feGaussianBlur stdDeviation="2.76784"/>
<feComposite in2="hardAlpha" operator="out"/>
<feColorMatrix type="matrix" values="0 0 0 0 0 0 0 0 0 0 0 0 0 0 0 0 0 0 0.25 0"/>
<feBlend mode="normal" in2="BackgroundImageFix" result="effect1_dropShadow_2549_12039"/>
<feBlend mode="normal" in="SourceGraphic" in2="effect1_dropShadow_2549_12039" result="shape"/>
</filter>
<filter id="filter15_d_2549_12039" x="242.882" y="80.3984" width="36.8975" height="32.251" filterUnits="userSpaceOnUse" color-interpolation-filters="sRGB">
<feFlood flood-opacity="0" result="BackgroundImageFix"/>
<feColorMatrix in="SourceAlpha" type="matrix" values="0 0 0 0 0 0 0 0 0 0 0 0 0 0 0 0 0 0 127 0" result="hardAlpha"/>
<feOffset dy="5.53568"/>
<feGaussianBlur stdDeviation="2.76784"/>
<feComposite in2="hardAlpha" operator="out"/>
<feColorMatrix type="matrix" values="0 0 0 0 0 0 0 0 0 0 0 0 0 0 0 0 0 0 0.25 0"/>
<feBlend mode="normal" in2="BackgroundImageFix" result="effect1_dropShadow_2549_12039"/>
<feBlend mode="normal" in="SourceGraphic" in2="effect1_dropShadow_2549_12039" result="shape"/>
</filter>
<filter id="filter16_d_2549_12039" x="261.562" y="42.5664" width="22.3721" height="44.3057" filterUnits="userSpaceOnUse" color-interpolation-filters="sRGB">
<feFlood flood-opacity="0" result="BackgroundImageFix"/>
<feColorMatrix in="SourceAlpha" type="matrix" values="0 0 0 0 0 0 0 0 0 0 0 0 0 0 0 0 0 0 127 0" result="hardAlpha"/>
<feOffset dy="5.53568"/>
<feGaussianBlur stdDeviation="2.76784"/>
<feComposite in2="hardAlpha" operator="out"/>
<feColorMatrix type="matrix" values="0 0 0 0 0 0 0 0 0 0 0 0 0 0 0 0 0 0 0.25 0"/>
<feBlend mode="normal" in2="BackgroundImageFix" result="effect1_dropShadow_2549_12039"/>
<feBlend mode="normal" in="SourceGraphic" in2="effect1_dropShadow_2549_12039" result="shape"/>
</filter>
<filter id="filter17_d_2549_12039" x="247.537" y="103.199" width="34.8975" height="34.3526" filterUnits="userSpaceOnUse" color-interpolation-filters="sRGB">
<feFlood flood-opacity="0" result="BackgroundImageFix"/>
<feColorMatrix in="SourceAlpha" type="matrix" values="0 0 0 0 0 0 0 0 0 0 0 0 0 0 0 0 0 0 127 0" result="hardAlpha"/>
<feOffset dy="5.53568"/>
<feGaussianBlur stdDeviation="2.76784"/>
<feComposite in2="hardAlpha" operator="out"/>
<feColorMatrix type="matrix" values="0 0 0 0 0 0 0 0 0 0 0 0 0 0 0 0 0 0 0.25 0"/>
<feBlend mode="normal" in2="BackgroundImageFix" result="effect1_dropShadow_2549_12039"/>
<feBlend mode="normal" in="SourceGraphic" in2="effect1_dropShadow_2549_12039" result="shape"/>
</filter>
<filter id="filter18_d_2549_12039" x="249.523" y="124.242" width="30.2667" height="38.63" filterUnits="userSpaceOnUse" color-interpolation-filters="sRGB">
<feFlood flood-opacity="0" result="BackgroundImageFix"/>
<feColorMatrix in="SourceAlpha" type="matrix" values="0 0 0 0 0 0 0 0 0 0 0 0 0 0 0 0 0 0 127 0" result="hardAlpha"/>
<feOffset dy="5.53568"/>
<feGaussianBlur stdDeviation="2.76784"/>
<feComposite in2="hardAlpha" operator="out"/>
<feColorMatrix type="matrix" values="0 0 0 0 0 0 0 0 0 0 0 0 0 0 0 0 0 0 0.25 0"/>
<feBlend mode="normal" in2="BackgroundImageFix" result="effect1_dropShadow_2549_12039"/>
<feBlend mode="normal" in="SourceGraphic" in2="effect1_dropShadow_2549_12039" result="shape"/>
</filter>
<filter id="filter19_d_2549_12039" x="4.00729" y="155.062" width="35.9893" height="33.2354" filterUnits="userSpaceOnUse" color-interpolation-filters="sRGB">
<feFlood flood-opacity="0" result="BackgroundImageFix"/>
<feColorMatrix in="SourceAlpha" type="matrix" values="0 0 0 0 0 0 0 0 0 0 0 0 0 0 0 0 0 0 127 0" result="hardAlpha"/>
<feOffset dy="5.53568"/>
<feGaussianBlur stdDeviation="2.76784"/>
<feComposite in2="hardAlpha" operator="out"/>
<feColorMatrix type="matrix" values="0 0 0 0 0 0 0 0 0 0 0 0 0 0 0 0 0 0 0.25 0"/>
<feBlend mode="normal" in2="BackgroundImageFix" result="effect1_dropShadow_2549_12039"/>
<feBlend mode="normal" in="SourceGraphic" in2="effect1_dropShadow_2549_12039" result="shape"/>
</filter>
<filter id="filter20_d_2549_12039" x="26.2065" y="124.242" width="30.2667" height="38.63" filterUnits="userSpaceOnUse" color-interpolation-filters="sRGB">
<feFlood flood-opacity="0" result="BackgroundImageFix"/>
<feColorMatrix in="SourceAlpha" type="matrix" values="0 0 0 0 0 0 0 0 0 0 0 0 0 0 0 0 0 0 127 0" result="hardAlpha"/>
<feOffset dy="5.53568"/>
<feGaussianBlur stdDeviation="2.76784"/>
<feComposite in2="hardAlpha" operator="out"/>
<feColorMatrix type="matrix" values="0 0 0 0 0 0 0 0 0 0 0 0 0 0 0 0 0 0 0.25 0"/>
<feBlend mode="normal" in2="BackgroundImageFix" result="effect1_dropShadow_2549_12039"/>
<feBlend mode="normal" in="SourceGraphic" in2="effect1_dropShadow_2549_12039" result="shape"/>
</filter>
<filter id="filter21_d_2549_12039" x="265.998" y="155.062" width="35.9893" height="33.2354" filterUnits="userSpaceOnUse" color-interpolation-filters="sRGB">
<feFlood flood-opacity="0" result="BackgroundImageFix"/>
<feColorMatrix in="SourceAlpha" type="matrix" values="0 0 0 0 0 0 0 0 0 0 0 0 0 0 0 0 0 0 127 0" result="hardAlpha"/>
<feOffset dy="5.53568"/>
<feGaussianBlur stdDeviation="2.76784"/>
<feComposite in2="hardAlpha" operator="out"/>
<feColorMatrix type="matrix" values="0 0 0 0 0 0 0 0 0 0 0 0 0 0 0 0 0 0 0.25 0"/>
<feBlend mode="normal" in2="BackgroundImageFix" result="effect1_dropShadow_2549_12039"/>
<feBlend mode="normal" in="SourceGraphic" in2="effect1_dropShadow_2549_12039" result="shape"/>
</filter>
<filter id="filter22_d_2549_12039" x="216.046" y="227.844" width="44.1163" height="22.7471" filterUnits="userSpaceOnUse" color-interpolation-filters="sRGB">
<feFlood flood-opacity="0" result="BackgroundImageFix"/>
<feColorMatrix in="SourceAlpha" type="matrix" values="0 0 0 0 0 0 0 0 0 0 0 0 0 0 0 0 0 0 127 0" result="hardAlpha"/>
<feOffset dy="5.53568"/>
<feGaussianBlur stdDeviation="2.76784"/>
<feComposite in2="hardAlpha" operator="out"/>
<feColorMatrix type="matrix" values="0 0 0 0 0 0 0 0 0 0 0 0 0 0 0 0 0 0 0.25 0"/>
<feBlend mode="normal" in2="BackgroundImageFix" result="effect1_dropShadow_2549_12039"/>
<feBlend mode="normal" in="SourceGraphic" in2="effect1_dropShadow_2549_12039" result="shape"/>
</filter>
<filter id="filter23_d_2549_12039" x="253.447" y="183.102" width="39.9034" height="28.7198" filterUnits="userSpaceOnUse" color-interpolation-filters="sRGB">
<feFlood flood-opacity="0" result="BackgroundImageFix"/>
<feColorMatrix in="SourceAlpha" type="matrix" values="0 0 0 0 0 0 0 0 0 0 0 0 0 0 0 0 0 0 127 0" result="hardAlpha"/>
<feOffset dy="5.53568"/>
<feGaussianBlur stdDeviation="2.76784"/>
<feComposite in2="hardAlpha" operator="out"/>
<feColorMatrix type="matrix" values="0 0 0 0 0 0 0 0 0 0 0 0 0 0 0 0 0 0 0.25 0"/>
<feBlend mode="normal" in2="BackgroundImageFix" result="effect1_dropShadow_2549_12039"/>
<feBlend mode="normal" in="SourceGraphic" in2="effect1_dropShadow_2549_12039" result="shape"/>
</filter>
<filter id="filter24_d_2549_12039" x="236.154" y="207.859" width="42.6495" height="25.0948" filterUnits="userSpaceOnUse" color-interpolation-filters="sRGB">
<feFlood flood-opacity="0" result="BackgroundImageFix"/>
<feColorMatrix in="SourceAlpha" type="matrix" values="0 0 0 0 0 0 0 0 0 0 0 0 0 0 0 0 0 0 127 0" result="hardAlpha"/>
<feOffset dy="5.53568"/>
<feGaussianBlur stdDeviation="2.76784"/>
<feComposite in2="hardAlpha" operator="out"/>
<feColorMatrix type="matrix" values="0 0 0 0 0 0 0 0 0 0 0 0 0 0 0 0 0 0 0.25 0"/>
<feBlend mode="normal" in2="BackgroundImageFix" result="effect1_dropShadow_2549_12039"/>
<feBlend mode="normal" in="SourceGraphic" in2="effect1_dropShadow_2549_12039" result="shape"/>
</filter>
<filter id="filter25_d_2549_12039" x="22.0639" y="42.5664" width="22.3721" height="44.3057" filterUnits="userSpaceOnUse" color-interpolation-filters="sRGB">
<feFlood flood-opacity="0" result="BackgroundImageFix"/>
<feColorMatrix in="SourceAlpha" type="matrix" values="0 0 0 0 0 0 0 0 0 0 0 0 0 0 0 0 0 0 127 0" result="hardAlpha"/>
<feOffset dy="5.53568"/>
<feGaussianBlur stdDeviation="2.76784"/>
<feComposite in2="hardAlpha" operator="out"/>
<feColorMatrix type="matrix" values="0 0 0 0 0 0 0 0 0 0 0 0 0 0 0 0 0 0 0.25 0"/>
<feBlend mode="normal" in2="BackgroundImageFix" result="effect1_dropShadow_2549_12039"/>
<feBlend mode="normal" in="SourceGraphic" in2="effect1_dropShadow_2549_12039" result="shape"/>
</filter>
<filter id="filter26_d_2549_12039" x="11.2475" y="67.8281" width="23.6241" height="43.6182" filterUnits="userSpaceOnUse" color-interpolation-filters="sRGB">
<feFlood flood-opacity="0" result="BackgroundImageFix"/>
<feColorMatrix in="SourceAlpha" type="matrix" values="0 0 0 0 0 0 0 0 0 0 0 0 0 0 0 0 0 0 127 0" result="hardAlpha"/>
<feOffset dy="5.53568"/>
<feGaussianBlur stdDeviation="2.76784"/>
<feComposite in2="hardAlpha" operator="out"/>
<feColorMatrix type="matrix" values="0 0 0 0 0 0 0 0 0 0 0 0 0 0 0 0 0 0 0.25 0"/>
<feBlend mode="normal" in2="BackgroundImageFix" result="effect1_dropShadow_2549_12039"/>
<feBlend mode="normal" in="SourceGraphic" in2="effect1_dropShadow_2549_12039" result="shape"/>
</filter>
<filter id="filter27_d_2549_12039" x="45.8315" y="227.844" width="44.1163" height="22.7471" filterUnits="userSpaceOnUse" color-interpolation-filters="sRGB">
<feFlood flood-opacity="0" result="BackgroundImageFix"/>
<feColorMatrix in="SourceAlpha" type="matrix" values="0 0 0 0 0 0 0 0 0 0 0 0 0 0 0 0 0 0 127 0" result="hardAlpha"/>
<feOffset dy="5.53568"/>
<feGaussianBlur stdDeviation="2.76784"/>
<feComposite in2="hardAlpha" operator="out"/>
<feColorMatrix type="matrix" values="0 0 0 0 0 0 0 0 0 0 0 0 0 0 0 0 0 0 0.25 0"/>
<feBlend mode="normal" in2="BackgroundImageFix" result="effect1_dropShadow_2549_12039"/>
<feBlend mode="normal" in="SourceGraphic" in2="effect1_dropShadow_2549_12039" result="shape"/>
</filter>
<filter id="filter28_d_2549_12039" x="33.6089" y="145.023" width="26.2647" height="41.8096" filterUnits="userSpaceOnUse" color-interpolation-filters="sRGB">
<feFlood flood-opacity="0" result="BackgroundImageFix"/>
<feColorMatrix in="SourceAlpha" type="matrix" values="0 0 0 0 0 0 0 0 0 0 0 0 0 0 0 0 0 0 127 0" result="hardAlpha"/>
<feOffset dy="5.53568"/>
<feGaussianBlur stdDeviation="2.76784"/>
<feComposite in2="hardAlpha" operator="out"/>
<feColorMatrix type="matrix" values="0 0 0 0 0 0 0 0 0 0 0 0 0 0 0 0 0 0 0.25 0"/>
<feBlend mode="normal" in2="BackgroundImageFix" result="effect1_dropShadow_2549_12039"/>
<feBlend mode="normal" in="SourceGraphic" in2="effect1_dropShadow_2549_12039" result="shape"/>
</filter>
<filter id="filter29_d_2549_12039" x="44.5952" y="164.977" width="23.4151" height="43.7471" filterUnits="userSpaceOnUse" color-interpolation-filters="sRGB">
<feFlood flood-opacity="0" result="BackgroundImageFix"/>
<feColorMatrix in="SourceAlpha" type="matrix" values="0 0 0 0 0 0 0 0 0 0 0 0 0 0 0 0 0 0 127 0" result="hardAlpha"/>
<feOffset dy="5.53568"/>
<feGaussianBlur stdDeviation="2.76784"/>
<feComposite in2="hardAlpha" operator="out"/>
<feColorMatrix type="matrix" values="0 0 0 0 0 0 0 0 0 0 0 0 0 0 0 0 0 0 0.25 0"/>
<feBlend mode="normal" in2="BackgroundImageFix" result="effect1_dropShadow_2549_12039"/>
<feBlend mode="normal" in="SourceGraphic" in2="effect1_dropShadow_2549_12039" result="shape"/>
</filter>
<filter id="filter30_d_2549_12039" x="3.33346" y="96.1484" width="27.1378" height="41.1534" filterUnits="userSpaceOnUse" color-interpolation-filters="sRGB">
<feFlood flood-opacity="0" result="BackgroundImageFix"/>
<feColorMatrix in="SourceAlpha" type="matrix" values="0 0 0 0 0 0 0 0 0 0 0 0 0 0 0 0 0 0 127 0" result="hardAlpha"/>
<feOffset dy="5.53568"/>
<feGaussianBlur stdDeviation="2.76784"/>
<feComposite in2="hardAlpha" operator="out"/>
<feColorMatrix type="matrix" values="0 0 0 0 0 0 0 0 0 0 0 0 0 0 0 0 0 0 0.25 0"/>
<feBlend mode="normal" in2="BackgroundImageFix" result="effect1_dropShadow_2549_12039"/>
<feBlend mode="normal" in="SourceGraphic" in2="effect1_dropShadow_2549_12039" result="shape"/>
</filter>
<filter id="filter31_d_2549_12039" x="12.6479" y="183.098" width="39.9034" height="28.7198" filterUnits="userSpaceOnUse" color-interpolation-filters="sRGB">
<feFlood flood-opacity="0" result="BackgroundImageFix"/>
<feColorMatrix in="SourceAlpha" type="matrix" values="0 0 0 0 0 0 0 0 0 0 0 0 0 0 0 0 0 0 127 0" result="hardAlpha"/>
<feOffset dy="5.53568"/>
<feGaussianBlur stdDeviation="2.76784"/>
<feComposite in2="hardAlpha" operator="out"/>
<feColorMatrix type="matrix" values="0 0 0 0 0 0 0 0 0 0 0 0 0 0 0 0 0 0 0.25 0"/>
<feBlend mode="normal" in2="BackgroundImageFix" result="effect1_dropShadow_2549_12039"/>
<feBlend mode="normal" in="SourceGraphic" in2="effect1_dropShadow_2549_12039" result="shape"/>
</filter>
<filter id="filter32_d_2549_12039" x="27.1928" y="207.855" width="42.6495" height="25.0948" filterUnits="userSpaceOnUse" color-interpolation-filters="sRGB">
<feFlood flood-opacity="0" result="BackgroundImageFix"/>
<feColorMatrix in="SourceAlpha" type="matrix" values="0 0 0 0 0 0 0 0 0 0 0 0 0 0 0 0 0 0 127 0" result="hardAlpha"/>
<feOffset dy="5.53568"/>
<feGaussianBlur stdDeviation="2.76784"/>
<feComposite in2="hardAlpha" operator="out"/>
<feColorMatrix type="matrix" values="0 0 0 0 0 0 0 0 0 0 0 0 0 0 0 0 0 0 0.25 0"/>
<feBlend mode="normal" in2="BackgroundImageFix" result="effect1_dropShadow_2549_12039"/>
<feBlend mode="normal" in="SourceGraphic" in2="effect1_dropShadow_2549_12039" result="shape"/>
</filter>
<filter id="filter33_d_2549_12039" x="0.46432" y="125.59" width="31.3604" height="37.6846" filterUnits="userSpaceOnUse" color-interpolation-filters="sRGB">
<feFlood flood-opacity="0" result="BackgroundImageFix"/>
<feColorMatrix in="SourceAlpha" type="matrix" values="0 0 0 0 0 0 0 0 0 0 0 0 0 0 0 0 0 0 127 0" result="hardAlpha"/>
<feOffset dy="5.53568"/>
<feGaussianBlur stdDeviation="2.76784"/>
<feComposite in2="hardAlpha" operator="out"/>
<feColorMatrix type="matrix" values="0 0 0 0 0 0 0 0 0 0 0 0 0 0 0 0 0 0 0.25 0"/>
<feBlend mode="normal" in2="BackgroundImageFix" result="effect1_dropShadow_2549_12039"/>
<feBlend mode="normal" in="SourceGraphic" in2="effect1_dropShadow_2549_12039" result="shape"/>
</filter>
<linearGradient id="paint0_linear_2549_12039" x1="242.002" y1="301.001" x2="418" y2="301.001" gradientUnits="userSpaceOnUse">
<stop stop-color="#DDA02E"/>
<stop offset="0.5" stop-color="#FFE864"/>
<stop offset="1" stop-color="#DDA02E"/>
</linearGradient>
<clipPath id="clip0_2549_12039">
<rect width="157.767" height="157.767" fill="white" transform="translate(73.5391 58.125)"/>
</clipPath>
</defs>
</svg>
